<svg width="21" height="15" viewBox="0 0 21 15" fill="none" xmlns="http://www.w3.org/2000/svg">
<path d="M7.41875 15C6.24674 15 5.14496 14.5307 4.31626 13.6786L0.585117 9.84243C-0.195039 9.04029 -0.195039 7.73973 0.585117 6.93759C1.36527 6.13545 2.6302 6.13545 3.41035 6.93759L7.1415 10.7739C7.23645 10.8715 7.34467 10.892 7.41875 10.892C7.49282 10.892 7.60104 10.8715 7.69589 10.774L17.5896 0.601563C18.3698 -0.200573 19.6347 -0.200469 20.4149 0.601563C21.195 1.4037 21.195 2.70427 20.4149 3.5064L10.5212 13.6788C9.69254 14.5307 8.59075 15 7.41875 15Z" fill="#4ABC2B"/>
</svg>
