<svg width="26" height="17" viewBox="0 0 26 17" fill="none" xmlns="http://www.w3.org/2000/svg">
<path d="M23.3224 6.10352e-05H1.88808C0.845291 6.10352e-05 0 0.843147 0 1.88322V14.5911C0 15.6311 0.845291 16.4743 1.88808 16.4743H23.3224C24.3652 16.4743 25.2105 15.6312 25.2105 14.5911V1.88322C25.2105 0.843147 24.3652 6.10352e-05 23.3224 6.10352e-05Z" fill="#F5F5F5"/>
<path d="M0.103516 1.26731H25.041C24.7858 0.529818 24.0857 6.10352e-05 23.2615 6.10352e-05H1.88309C1.05882 6.10352e-05 0.358744 0.529818 0.103516 1.26731Z" fill="#FF4B55"/>
<path d="M25.1447 5.06897H0V6.33617H25.1447V5.06897Z" fill="#FF4B55"/>
<path d="M25.1447 2.5343H0V3.8015H25.1447V2.5343Z" fill="#FF4B55"/>
<path d="M0 8.43715C0 8.67657 0.194134 8.8707 0.433549 8.8707H25.1447V7.60345H0V8.43715Z" fill="#FF4B55"/>
<path d="M25.1447 12.6727H0V13.94H25.1447V12.6727Z" fill="#FF4B55"/>
<path d="M25.041 15.2068H0.103516C0.358744 15.9443 1.05887 16.4741 1.88309 16.4741H23.2615C24.0857 16.4741 24.7858 15.9443 25.041 15.2068Z" fill="#FF4B55"/>
<path d="M25.1447 10.1381H0V11.4053H25.1447V10.1381Z" fill="#FF4B55"/>
<path d="M0.434523 8.98592H11.2971C11.537 8.98592 11.7316 8.78927 11.7316 8.54674V0.439179C11.7316 0.196606 11.537 0 11.2971 0H1.88738C0.844976 4.97485e-05 0 0.854082 0 1.90766V8.54674C0 8.78932 0.19457 8.98592 0.434523 8.98592Z" fill="#41479B"/>
<path d="M1.21764 0.995357L1.3136 1.28315L1.61696 1.28545C1.65625 1.2858 1.67251 1.33589 1.64093 1.35922L1.3969 1.53941L1.48844 1.82862C1.50032 1.86604 1.45765 1.89708 1.42568 1.87419L1.17889 1.69784L0.932113 1.87424C0.900142 1.89713 0.857563 1.86609 0.86935 1.82867L0.960892 1.53945L0.716861 1.35927C0.685283 1.33589 0.701539 1.2858 0.740827 1.2855L1.04418 1.28319L1.14015 0.995406C1.15252 0.958082 1.20517 0.958082 1.21764 0.995357Z" fill="#F5F5F5"/>
<path d="M1.21764 2.50045L1.3136 2.78824L1.61696 2.79055C1.65625 2.79089 1.67251 2.84093 1.64093 2.86431L1.3969 3.04455L1.48844 3.33376C1.50032 3.37118 1.45765 3.40222 1.42568 3.37933L1.17889 3.20298L0.932113 3.37938C0.900142 3.40222 0.857563 3.37123 0.86935 3.33381L0.960892 3.04459L0.716861 2.86436C0.685283 2.84098 0.701539 2.79094 0.740827 2.79059L1.04418 2.78829L1.14015 2.5005C1.15252 2.46322 1.20517 2.46322 1.21764 2.50045Z" fill="#F5F5F5"/>
<path d="M1.21764 4.00598L1.3136 4.29377L1.61696 4.29607C1.65625 4.29642 1.67251 4.34646 1.64093 4.36984L1.3969 4.55008L1.48844 4.83929C1.50032 4.87671 1.45765 4.90775 1.42568 4.88486L1.17889 4.70851L0.932113 4.88491C0.900142 4.90775 0.857563 4.87681 0.86935 4.83934L0.960892 4.55012L0.716861 4.36989C0.685283 4.34651 0.701539 4.29647 0.740827 4.29612L1.04418 4.29382L1.14015 4.00603C1.15252 3.9687 1.20517 3.9687 1.21764 4.00598Z" fill="#F5F5F5"/>
<path d="M1.21764 5.51141L1.3136 5.7992L1.61696 5.80151C1.65625 5.80185 1.67251 5.85194 1.64093 5.87527L1.3969 6.05551L1.48844 6.34472C1.50032 6.38214 1.45765 6.41318 1.42568 6.39029L1.17889 6.21394L0.932113 6.39034C0.900142 6.41318 0.857563 6.38219 0.86935 6.34477L0.960892 6.05555L0.716861 5.87532C0.685283 5.85204 0.701539 5.8019 0.740827 5.80156L1.04418 5.79925L1.14015 5.51146C1.15252 5.47413 1.20517 5.47413 1.21764 5.51141Z" fill="#F5F5F5"/>
<path d="M1.21764 7.01687L1.3136 7.30465L1.61696 7.30696C1.65625 7.30731 1.67251 7.35735 1.64093 7.38073L1.3969 7.56096L1.48844 7.85018C1.50032 7.8876 1.45765 7.91864 1.42568 7.89575L1.17889 7.71939L0.932113 7.8958C0.900142 7.91864 0.857563 7.88765 0.86935 7.85023L0.960892 7.56101L0.716861 7.38078C0.685283 7.3574 0.701539 7.30736 0.740827 7.30701L1.04418 7.3047L1.14015 7.01691C1.15252 6.97964 1.20517 6.97964 1.21764 7.01687Z" fill="#F5F5F5"/>
<path d="M2.3861 1.73312L2.48206 2.02091L2.78542 2.02322C2.82471 2.02356 2.84096 2.07365 2.80938 2.09698L2.56535 2.27722L2.6569 2.56643C2.66878 2.60385 2.6261 2.63489 2.59413 2.61201L2.34735 2.4356L2.10057 2.61201C2.0686 2.63484 2.02602 2.60385 2.03781 2.56643L2.12935 2.27722L1.88532 2.09698C1.85374 2.0736 1.87 2.02356 1.90928 2.02322L2.21264 2.02091L2.3086 1.73312C2.32098 1.69589 2.37367 1.69589 2.3861 1.73312Z" fill="#F5F5F5"/>
<path d="M2.3861 3.23865L2.48206 3.52644L2.78542 3.52875C2.82471 3.52909 2.84096 3.57918 2.80938 3.60251L2.56535 3.78275L2.6569 4.07196C2.66878 4.10938 2.6261 4.14042 2.59413 4.11753L2.34735 3.94113L2.10057 4.11753C2.0686 4.14037 2.02602 4.10943 2.03781 4.07196L2.12935 3.78275L1.88532 3.60251C1.85374 3.57923 1.87 3.52909 1.90928 3.52875L2.21264 3.52644L2.3086 3.23865C2.32098 3.20137 2.37367 3.20137 2.3861 3.23865Z" fill="#F5F5F5"/>
<path d="M2.3861 4.74408L2.48206 5.03187L2.78542 5.03418C2.82471 5.03452 2.84096 5.08457 2.80938 5.10794L2.56535 5.28818L2.6569 5.57739C2.66878 5.61482 2.6261 5.64585 2.59413 5.62297L2.34735 5.44656L2.10057 5.62297C2.0686 5.6458 2.02602 5.61482 2.03781 5.57739L2.12935 5.28818L1.88532 5.10794C1.85374 5.08457 1.87 5.03452 1.90928 5.03418L2.21264 5.03187L2.3086 4.74408C2.32098 4.70681 2.37367 4.70681 2.3861 4.74408Z" fill="#F5F5F5"/>
<path d="M2.3861 6.24954L2.48206 6.53733L2.78542 6.53963C2.82471 6.53998 2.84096 6.59002 2.80938 6.6134L2.56535 6.79363L2.6569 7.08285C2.66878 7.12027 2.6261 7.15131 2.59413 7.12842L2.34735 6.95202L2.10057 7.12842C2.0686 7.15131 2.02602 7.12027 2.03781 7.08285L2.12935 6.79363L1.88532 6.6134C1.85374 6.59002 1.87 6.53998 1.90928 6.53963L2.21264 6.53733L2.3086 6.24954C2.32098 6.21231 2.37367 6.21231 2.3861 6.24954Z" fill="#F5F5F5"/>
<path d="M3.55456 0.995058L3.65052 1.28285L3.95388 1.28516C3.99316 1.2855 4.00942 1.33559 3.97784 1.35892L3.73381 1.53911L3.82535 1.82832C3.83724 1.86574 3.79456 1.89678 3.76259 1.87389L3.51581 1.69749L3.26903 1.87389C3.23706 1.89678 3.19448 1.86574 3.20626 1.82832L3.29781 1.53911L3.05378 1.35892C3.0222 1.33554 3.03845 1.28545 3.07774 1.28516L3.3811 1.28285L3.47706 0.995058C3.48944 0.957783 3.54213 0.957783 3.55456 0.995058Z" fill="#F5F5F5"/>
<path d="M3.55456 2.50045L3.65052 2.78824L3.95388 2.79055C3.99316 2.79089 4.00942 2.84094 3.97784 2.86431L3.73381 3.04455L3.82535 3.33376C3.83724 3.37119 3.79456 3.40222 3.76259 3.37934L3.51581 3.20293L3.26903 3.37934C3.23706 3.40217 3.19448 3.37119 3.20626 3.33376L3.29781 3.04455L3.05378 2.86431C3.0222 2.84094 3.03845 2.79089 3.07774 2.79055L3.3811 2.78824L3.47706 2.50045C3.48944 2.46323 3.54213 2.46323 3.55456 2.50045Z" fill="#F5F5F5"/>
<path d="M3.55456 4.00598L3.65052 4.29377L3.95388 4.29608C3.99316 4.29642 4.00942 4.34647 3.97784 4.36985L3.73381 4.55008L3.82535 4.83929C3.83724 4.87672 3.79456 4.90775 3.76259 4.88487L3.51581 4.70846L3.26903 4.88487C3.23706 4.90771 3.19448 4.87677 3.20626 4.83929L3.29781 4.55008L3.05378 4.36985C3.0222 4.34647 3.03845 4.29642 3.07774 4.29608L3.3811 4.29377L3.47706 4.00598C3.48944 3.96871 3.54213 3.96871 3.55456 4.00598Z" fill="#F5F5F5"/>
<path d="M3.55456 5.51142L3.65052 5.7992L3.95388 5.80151C3.99316 5.80186 4.00942 5.85195 3.97784 5.87528L3.73381 6.05551L3.82535 6.34473C3.83724 6.38215 3.79456 6.41319 3.76259 6.3903L3.51581 6.2139L3.26903 6.3903C3.23706 6.41314 3.19448 6.38215 3.20626 6.34473L3.29781 6.05551L3.05378 5.87528C3.0222 5.852 3.03845 5.80186 3.07774 5.80151L3.3811 5.7992L3.47706 5.51142C3.48944 5.47414 3.54213 5.47414 3.55456 5.51142Z" fill="#F5F5F5"/>
<path d="M3.55456 7.01687L3.65052 7.30466L3.95388 7.30697C3.99316 7.30731 4.00942 7.35736 3.97784 7.38073L3.73381 7.56097L3.82535 7.85018C3.83724 7.8876 3.79456 7.91864 3.76259 7.89576L3.51581 7.71935L3.26903 7.89576C3.23706 7.91859 3.19448 7.8876 3.20626 7.85018L3.29781 7.56097L3.05378 7.38073C3.0222 7.35736 3.03845 7.30731 3.07774 7.30697L3.3811 7.30466L3.47706 7.01687C3.48944 6.97965 3.54213 6.97965 3.55456 7.01687Z" fill="#F5F5F5"/>
<path d="M4.72301 1.73312L4.81898 2.02091L5.12233 2.02322C5.16162 2.02356 5.17788 2.07365 5.1463 2.09698L4.90227 2.27722L4.99381 2.56643C5.0057 2.60385 4.96302 2.63489 4.93105 2.61201L4.68427 2.4356L4.43748 2.61201C4.40551 2.63484 4.36293 2.60385 4.37472 2.56643L4.46626 2.27722L4.22223 2.09698C4.19065 2.0736 4.20691 2.02356 4.2462 2.02322L4.54956 2.02091L4.64552 1.73312C4.65784 1.69589 4.71059 1.69589 4.72301 1.73312Z" fill="#F5F5F5"/>
<path d="M4.72301 3.23865L4.81898 3.52644L5.12233 3.52875C5.16162 3.52909 5.17788 3.57918 5.1463 3.60251L4.90227 3.78275L4.99381 4.07196C5.0057 4.10938 4.96302 4.14042 4.93105 4.11753L4.68427 3.94113L4.43748 4.11753C4.40551 4.14037 4.36293 4.10943 4.37472 4.07196L4.46626 3.78275L4.22223 3.60251C4.19065 3.57923 4.20691 3.52909 4.2462 3.52875L4.54956 3.52644L4.64552 3.23865C4.65784 3.20137 4.71059 3.20137 4.72301 3.23865Z" fill="#F5F5F5"/>
<path d="M4.72301 4.74408L4.81898 5.03187L5.12233 5.03418C5.16162 5.03452 5.17788 5.08457 5.1463 5.10794L4.90227 5.28818L4.99381 5.57739C5.0057 5.61482 4.96302 5.64585 4.93105 5.62297L4.68427 5.44656L4.43748 5.62297C4.40551 5.6458 4.36293 5.61482 4.37472 5.57739L4.46626 5.28818L4.22223 5.10794C4.19065 5.08457 4.20691 5.03452 4.2462 5.03418L4.54956 5.03187L4.64552 4.74408C4.65784 4.70681 4.71059 4.70681 4.72301 4.74408Z" fill="#F5F5F5"/>
<path d="M4.72301 6.24954L4.81898 6.53733L5.12233 6.53963C5.16162 6.53998 5.17788 6.59002 5.1463 6.6134L4.90227 6.79363L4.99381 7.08285C5.0057 7.12027 4.96302 7.15131 4.93105 7.12842L4.68427 6.95202L4.43748 7.12842C4.40551 7.15131 4.36293 7.12027 4.37472 7.08285L4.46626 6.79363L4.22223 6.6134C4.19065 6.59002 4.20691 6.53998 4.2462 6.53963L4.54956 6.53733L4.64552 6.24954C4.65784 6.21231 4.71059 6.21231 4.72301 6.24954Z" fill="#F5F5F5"/>
<path d="M5.89201 0.995052L5.98797 1.28284L6.29133 1.28515C6.33062 1.28549 6.34687 1.33559 6.31529 1.35891L6.07126 1.5391L6.1628 1.82831C6.17469 1.86573 6.13201 1.89677 6.10004 1.87389L5.85321 1.69753L5.60643 1.87394C5.57446 1.89682 5.53188 1.86578 5.54367 1.82836L5.63521 1.53915L5.39118 1.35896C5.3596 1.33559 5.37586 1.28549 5.41514 1.2852L5.7185 1.28289L5.81446 0.995101C5.82689 0.957777 5.87958 0.957777 5.89201 0.995052Z" fill="#F5F5F5"/>
<path d="M5.89201 2.50045L5.98797 2.78824L6.29133 2.79055C6.33062 2.79089 6.34687 2.84094 6.31529 2.86431L6.07126 3.04455L6.1628 3.33376C6.17469 3.37119 6.13201 3.40222 6.10004 3.37934L5.85321 3.20293L5.60643 3.37934C5.57446 3.40217 5.53188 3.37119 5.54367 3.33376L5.63521 3.04455L5.39118 2.86431C5.3596 2.84094 5.37586 2.79089 5.41514 2.79055L5.7185 2.78824L5.81446 2.50045C5.82689 2.46323 5.87958 2.46323 5.89201 2.50045Z" fill="#F5F5F5"/>
<path d="M5.89201 4.00599L5.98797 4.29378L6.29133 4.29609C6.33062 4.29643 6.34687 4.34647 6.31529 4.36985L6.07126 4.55009L6.1628 4.8393C6.17469 4.87672 6.13201 4.90776 6.10004 4.88487L5.85321 4.70842L5.60643 4.88483C5.57446 4.90766 5.53188 4.87667 5.54367 4.83925L5.63521 4.55004L5.39118 4.3698C5.3596 4.34643 5.37586 4.29638 5.41514 4.29604L5.7185 4.29373L5.81446 4.00594C5.82689 3.96871 5.87958 3.96871 5.89201 4.00599Z" fill="#F5F5F5"/>
<path d="M5.89201 5.51142L5.98797 5.7992L6.29133 5.80151C6.33062 5.80186 6.34687 5.85195 6.31529 5.87528L6.07126 6.05551L6.1628 6.34473C6.17469 6.38215 6.13201 6.41319 6.10004 6.3903L5.85321 6.2139L5.60643 6.3903C5.57446 6.41314 5.53188 6.38215 5.54367 6.34473L5.63521 6.05551L5.39118 5.87528C5.3596 5.852 5.37586 5.80186 5.41514 5.80151L5.7185 5.7992L5.81446 5.51142C5.82689 5.47414 5.87958 5.47414 5.89201 5.51142Z" fill="#F5F5F5"/>
<path d="M5.89201 7.01687L5.98797 7.30466L6.29133 7.30697C6.33062 7.30731 6.34687 7.35736 6.31529 7.38073L6.07126 7.56097L6.1628 7.85018C6.17469 7.8876 6.13201 7.91864 6.10004 7.89576L5.85321 7.71935L5.60643 7.89576C5.57446 7.91859 5.53188 7.8876 5.54367 7.85018L5.63521 7.56097L5.39118 7.38073C5.3596 7.35736 5.37586 7.30731 5.41514 7.30697L5.7185 7.30466L5.81446 7.01687C5.82689 6.97965 5.87958 6.97965 5.89201 7.01687Z" fill="#F5F5F5"/>
<path d="M7.05993 1.73312L7.15589 2.02091L7.45925 2.02322C7.49853 2.02356 7.51479 2.07365 7.48321 2.09698L7.23918 2.27722L7.33072 2.56643C7.34261 2.60385 7.29993 2.63489 7.26796 2.61201L7.02118 2.4356L6.7744 2.61201C6.74243 2.63484 6.69985 2.60385 6.71163 2.56643L6.80318 2.27722L6.55915 2.09698C6.52757 2.0736 6.54382 2.02356 6.58311 2.02322L6.88647 2.02091L6.98243 1.73312C6.99486 1.69589 7.0475 1.69589 7.05993 1.73312Z" fill="#F5F5F5"/>
<path d="M7.05993 3.23865L7.15589 3.52644L7.45925 3.52875C7.49853 3.52909 7.51479 3.57918 7.48321 3.60251L7.23918 3.78275L7.33072 4.07196C7.34261 4.10938 7.29993 4.14042 7.26796 4.11753L7.02118 3.94113L6.7744 4.11753C6.74243 4.14037 6.69985 4.10943 6.71163 4.07196L6.80318 3.78275L6.55915 3.60251C6.52757 3.57923 6.54382 3.52909 6.58311 3.52875L6.88647 3.52644L6.98243 3.23865C6.99486 3.20137 7.0475 3.20137 7.05993 3.23865Z" fill="#F5F5F5"/>
<path d="M7.05993 4.74408L7.15589 5.03187L7.45925 5.03418C7.49853 5.03452 7.51479 5.08457 7.48321 5.10794L7.23918 5.28818L7.33072 5.57739C7.34261 5.61482 7.29993 5.64585 7.26796 5.62297L7.02118 5.44656L6.7744 5.62297C6.74243 5.6458 6.69985 5.61482 6.71163 5.57739L6.80318 5.28818L6.55915 5.10794C6.52757 5.08457 6.54382 5.03452 6.58311 5.03418L6.88647 5.03187L6.98243 4.74408C6.99486 4.70681 7.0475 4.70681 7.05993 4.74408Z" fill="#F5F5F5"/>
<path d="M7.05993 6.24954L7.15589 6.53733L7.45925 6.53963C7.49853 6.53998 7.51479 6.59002 7.48321 6.6134L7.23918 6.79363L7.33072 7.08285C7.34261 7.12027 7.29993 7.15131 7.26796 7.12842L7.02118 6.95202L6.7744 7.12842C6.74243 7.15131 6.69985 7.12027 6.71163 7.08285L6.80318 6.79363L6.55915 6.6134C6.52757 6.59002 6.54382 6.53998 6.58311 6.53963L6.88647 6.53733L6.98243 6.24954C6.99486 6.21231 7.0475 6.21231 7.05993 6.24954Z" fill="#F5F5F5"/>
<path d="M8.22887 0.995058L8.32484 1.28285L8.62819 1.28516C8.66748 1.2855 8.68374 1.33559 8.65216 1.35892L8.40813 1.53911L8.49967 1.82832C8.51155 1.86574 8.46888 1.89678 8.43691 1.87389L8.19012 1.69749L7.94334 1.87389C7.91137 1.89678 7.86879 1.86574 7.88058 1.82832L7.97212 1.53911L7.72809 1.35892C7.69651 1.33554 7.71277 1.28545 7.75206 1.28516L8.05541 1.28285L8.15138 0.995058C8.1637 0.957783 8.21645 0.957783 8.22887 0.995058Z" fill="#F5F5F5"/>
<path d="M8.22887 2.50045L8.32484 2.78824L8.62819 2.79055C8.66748 2.79089 8.68374 2.84094 8.65216 2.86431L8.40813 3.04455L8.49967 3.33376C8.51155 3.37119 8.46888 3.40222 8.43691 3.37934L8.19012 3.20293L7.94334 3.37934C7.91137 3.40217 7.86879 3.37119 7.88058 3.33376L7.97212 3.04455L7.72809 2.86431C7.69651 2.84094 7.71277 2.79089 7.75206 2.79055L8.05541 2.78824L8.15138 2.50045C8.1637 2.46323 8.21645 2.46323 8.22887 2.50045Z" fill="#F5F5F5"/>
<path d="M8.22887 4.00598L8.32484 4.29377L8.62819 4.29608C8.66748 4.29642 8.68374 4.34647 8.65216 4.36985L8.40813 4.55008L8.49967 4.83929C8.51155 4.87672 8.46888 4.90775 8.43691 4.88487L8.19012 4.70846L7.94334 4.88487C7.91137 4.90771 7.86879 4.87677 7.88058 4.83929L7.97212 4.55008L7.72809 4.36985C7.69651 4.34647 7.71277 4.29642 7.75206 4.29608L8.05541 4.29377L8.15138 4.00598C8.1637 3.96871 8.21645 3.96871 8.22887 4.00598Z" fill="#F5F5F5"/>
<path d="M8.22887 5.51142L8.32484 5.7992L8.62819 5.80151C8.66748 5.80186 8.68374 5.85195 8.65216 5.87528L8.40813 6.05551L8.49967 6.34473C8.51155 6.38215 8.46888 6.41319 8.43691 6.3903L8.19012 6.2139L7.94334 6.3903C7.91137 6.41314 7.86879 6.38215 7.88058 6.34473L7.97212 6.05551L7.72809 5.87528C7.69651 5.852 7.71277 5.80186 7.75206 5.80151L8.05541 5.7992L8.15138 5.51142C8.1637 5.47414 8.21645 5.47414 8.22887 5.51142Z" fill="#F5F5F5"/>
<path d="M8.22887 7.01687L8.32484 7.30466L8.62819 7.30697C8.66748 7.30731 8.68374 7.35736 8.65216 7.38073L8.40813 7.56097L8.49967 7.85018C8.51155 7.8876 8.46888 7.91864 8.43691 7.89576L8.19012 7.71935L7.94334 7.89576C7.91137 7.91859 7.86879 7.8876 7.88058 7.85018L7.97212 7.56097L7.72809 7.38073C7.69651 7.35736 7.71277 7.30731 7.75206 7.30697L8.05541 7.30466L8.15138 7.01687C8.1637 6.97965 8.21645 6.97965 8.22887 7.01687Z" fill="#F5F5F5"/>
<path d="M9.39684 1.73312L9.4928 2.02091L9.79616 2.02322C9.83545 2.02356 9.8517 2.07365 9.82013 2.09698L9.5761 2.27722L9.66764 2.56643C9.67952 2.60385 9.63685 2.63489 9.60487 2.61201L9.35809 2.4356L9.11131 2.61201C9.07934 2.63484 9.03676 2.60385 9.04855 2.56643L9.14009 2.27722L8.89606 2.09698C8.86448 2.0736 8.88074 2.02356 8.92003 2.02322L9.22338 2.02091L9.31935 1.73312C9.33172 1.69589 9.38442 1.69589 9.39684 1.73312Z" fill="#F5F5F5"/>
<path d="M9.39684 3.23865L9.4928 3.52644L9.79616 3.52875C9.83545 3.52909 9.8517 3.57918 9.82013 3.60251L9.5761 3.78275L9.66764 4.07196C9.67952 4.10938 9.63685 4.14042 9.60487 4.11753L9.35809 3.94113L9.11131 4.11753C9.07934 4.14037 9.03676 4.10943 9.04855 4.07196L9.14009 3.78275L8.89606 3.60251C8.86448 3.57923 8.88074 3.52909 8.92003 3.52875L9.22338 3.52644L9.31935 3.23865C9.33172 3.20137 9.38442 3.20137 9.39684 3.23865Z" fill="#F5F5F5"/>
<path d="M9.39684 4.74408L9.4928 5.03187L9.79616 5.03418C9.83545 5.03452 9.8517 5.08457 9.82013 5.10794L9.5761 5.28818L9.66764 5.57739C9.67952 5.61482 9.63685 5.64585 9.60487 5.62297L9.35809 5.44656L9.11131 5.62297C9.07934 5.6458 9.03676 5.61482 9.04855 5.57739L9.14009 5.28818L8.89606 5.10794C8.86448 5.08457 8.88074 5.03452 8.92003 5.03418L9.22338 5.03187L9.31935 4.74408C9.33172 4.70681 9.38442 4.70681 9.39684 4.74408Z" fill="#F5F5F5"/>
<path d="M9.39684 6.24954L9.4928 6.53733L9.79616 6.53963C9.83545 6.53998 9.8517 6.59002 9.82013 6.6134L9.5761 6.79363L9.66764 7.08285C9.67952 7.12027 9.63685 7.15131 9.60487 7.12842L9.35809 6.95202L9.11131 7.12842C9.07934 7.15131 9.03676 7.12027 9.04855 7.08285L9.14009 6.79363L8.89606 6.6134C8.86448 6.59002 8.88074 6.53998 8.92003 6.53963L9.22338 6.53733L9.31935 6.24954C9.33172 6.21231 9.38442 6.21231 9.39684 6.24954Z" fill="#F5F5F5"/>
<path d="M10.5658 0.995058L10.6617 1.28285L10.9651 1.28516C11.0044 1.2855 11.0207 1.33559 10.9891 1.35892L10.745 1.53911L10.8366 1.82832C10.8485 1.86574 10.8058 1.89678 10.7738 1.87389L10.527 1.69749L10.2803 1.87389C10.2483 1.89678 10.2057 1.86574 10.2175 1.82832L10.309 1.53911L10.065 1.35892C10.0334 1.33554 10.0497 1.28545 10.089 1.28516L10.3923 1.28285L10.4883 0.995058C10.5007 0.957783 10.5533 0.957783 10.5658 0.995058Z" fill="#F5F5F5"/>
<path d="M10.5658 2.50045L10.6617 2.78824L10.9651 2.79055C11.0044 2.79089 11.0207 2.84094 10.9891 2.86431L10.745 3.04455L10.8366 3.33376C10.8485 3.37119 10.8058 3.40222 10.7738 3.37934L10.527 3.20293L10.2803 3.37934C10.2483 3.40217 10.2057 3.37119 10.2175 3.33376L10.309 3.04455L10.065 2.86431C10.0334 2.84094 10.0497 2.79089 10.089 2.79055L10.3923 2.78824L10.4883 2.50045C10.5007 2.46323 10.5533 2.46323 10.5658 2.50045Z" fill="#F5F5F5"/>
<path d="M10.5658 4.00598L10.6617 4.29377L10.9651 4.29608C11.0044 4.29642 11.0207 4.34647 10.9891 4.36985L10.745 4.55008L10.8366 4.83929C10.8485 4.87672 10.8058 4.90775 10.7738 4.88487L10.527 4.70846L10.2803 4.88487C10.2483 4.90771 10.2057 4.87677 10.2175 4.83929L10.309 4.55008L10.065 4.36985C10.0334 4.34647 10.0497 4.29642 10.089 4.29608L10.3923 4.29377L10.4883 4.00598C10.5007 3.96871 10.5533 3.96871 10.5658 4.00598Z" fill="#F5F5F5"/>
<path d="M10.5658 5.51142L10.6617 5.7992L10.9651 5.80151C11.0044 5.80186 11.0207 5.85195 10.9891 5.87528L10.745 6.05551L10.8366 6.34473C10.8485 6.38215 10.8058 6.41319 10.7738 6.3903L10.527 6.2139L10.2803 6.3903C10.2483 6.41314 10.2057 6.38215 10.2175 6.34473L10.309 6.05551L10.065 5.87528C10.0334 5.852 10.0497 5.80186 10.089 5.80151L10.3923 5.7992L10.4883 5.51142C10.5007 5.47414 10.5533 5.47414 10.5658 5.51142Z" fill="#F5F5F5"/>
<path d="M10.5658 7.01687L10.6617 7.30466L10.9651 7.30697C11.0044 7.30731 11.0207 7.35736 10.9891 7.38073L10.745 7.56097L10.8366 7.85018C10.8485 7.8876 10.8058 7.91864 10.7738 7.89576L10.527 7.71935L10.2803 7.89576C10.2483 7.91859 10.2057 7.8876 10.2175 7.85018L10.309 7.56097L10.065 7.38073C10.0334 7.35736 10.0497 7.30731 10.089 7.30697L10.3923 7.30466L10.4883 7.01687C10.5007 6.97965 10.5533 6.97965 10.5658 7.01687Z" fill="#F5F5F5"/>
</svg>
