<svg width="136" height="136" viewBox="0 0 136 136" fill="none" xmlns="http://www.w3.org/2000/svg">
<rect width="136" height="136" fill="white"/>
<path d="M68.0002 133.621C104.242 133.621 133.621 104.241 133.621 68C133.621 31.7586 104.242 2.37915 68.0002 2.37915C31.7588 2.37915 2.37939 31.7586 2.37939 68C2.37939 104.241 31.7588 133.621 68.0002 133.621Z" fill="url(#paint0_linear)"/>
<path d="M78.5368 98.3477C83.5194 91.5669 86.8024 83.4611 87.7586 74.6557L48.1082 35.0053C45.9648 32.4371 42.7397 31.2024 39.1325 31.2024C32.6786 31.2024 27.645 36.2323 27.645 42.6861C27.645 46.2933 29.0829 49.3149 31.6474 51.4584L66.7976 86.6085L78.5368 98.3477Z" fill="url(#paint1_linear)"/>
<path d="M97.2404 31.2024C90.7865 31.2024 85.7529 36.2323 85.7529 42.6861C85.7529 46.2933 87.1908 49.3149 89.7553 51.4584L124.905 86.6085L129.424 91.1272C132.134 83.9339 133.621 76.1411 133.621 68C133.621 66.0269 133.528 64.076 133.358 62.1472L106.216 35.0053C104.073 32.4371 100.848 31.2024 97.2404 31.2024Z" fill="url(#paint2_linear)"/>
<path d="M105.836 59.725C104.211 57.6541 101.694 56.3629 98.9372 56.3629H95.6215C95.2298 56.3629 94.846 56.3901 94.466 56.4405C90.9682 56.9021 88.0362 59.4459 87.1364 62.9362L83.817 75.8152C83.4796 77.1221 87.9484 76.9845 89.1274 77.4229C89.1274 77.4229 88.6412 82.3613 88.8314 82.5824V103.074C88.8314 104.179 89.5255 105.118 90.4988 105.49L99.6004 114.591H114.206C122.272 106.591 128.27 96.5109 131.332 85.2216L105.836 59.725Z" fill="url(#paint3_linear)"/>
<path d="M48.0163 59.725C46.3915 57.6541 43.8745 56.3629 41.1174 56.3629H37.8017C37.4099 56.3629 37.0262 56.3901 36.6462 56.4405C33.1483 56.9021 30.2163 59.4459 29.3166 62.9362L25.9971 75.8152C25.6598 77.1221 26.3966 78.4018 27.5755 78.84C27.5755 78.84 30.8214 82.3613 31.0115 82.5824V103.074C31.0115 104.179 31.7057 105.118 32.679 105.49L41.7806 114.591H56.3862C64.4526 106.591 70.4502 96.5109 73.5126 85.2216L48.0163 59.725Z" fill="url(#paint4_linear)"/>
<path d="M68 136C105.555 136 136 105.555 136 68C136 30.4453 105.555 0 68 0C30.4453 0 0 30.4453 0 68C0 105.555 30.4453 136 68 136ZM68 15.0107C97.1733 15.0107 120.821 38.736 120.821 68C120.821 97.264 97.1733 120.989 68 120.989C38.8267 120.989 15.1787 97.264 15.1787 68C15.1787 38.736 38.8267 15.0107 68 15.0107Z" fill="url(#paint5_linear)"/>
<path d="M68 0C30.4453 0 0 30.4453 0 68C0 105.555 30.4453 136 68 136C105.555 136 136 105.555 136 68C136 30.4453 105.555 0 68 0ZM68 130.822C33.3053 130.822 5.1784 102.695 5.1784 68C5.1784 33.3053 33.3053 5.1784 68 5.1784C102.695 5.1784 130.822 33.3053 130.822 68C130.822 102.695 102.695 130.822 68 130.822Z" fill="url(#paint6_linear)"/>
<path d="M50.8457 42.4005C50.8457 48.8797 45.5923 54.132 39.1118 54.132C32.6315 54.132 27.3779 48.8797 27.3779 42.4005C27.3779 35.9213 32.6313 30.6691 39.1118 30.6691C45.5923 30.6691 50.8457 35.9216 50.8457 42.4005Z" fill="url(#paint7_linear)"/>
<path d="M44.3608 31.9064C45.1523 33.4856 45.5984 35.2677 45.5984 37.1541C45.5984 43.6333 40.3451 48.8856 33.8645 48.8856C31.9776 48.8856 30.1952 48.4394 28.6157 47.6482C30.5421 51.4925 34.5187 54.132 39.112 54.132C45.5923 54.132 50.8459 48.8797 50.8459 42.4005C50.8456 37.808 48.2059 33.8325 44.3608 31.9064Z" fill="url(#paint8_linear)"/>
<path d="M52.5735 75.4839L49.2535 62.609C48.2556 58.7394 44.766 56.0354 40.7698 56.0354H37.4546C33.4586 56.0354 29.9687 58.7394 28.9708 62.609L25.6508 75.4839C25.2351 77.0965 26.4527 78.6679 28.118 78.6679C29.5252 78.6679 30.666 79.8087 30.666 81.2159V102.743C30.666 104.172 31.8244 105.331 33.2535 105.331H43.474C45.7298 105.331 47.5583 103.502 47.5583 101.246V81.2159C47.5583 79.8087 48.6991 78.6679 50.1063 78.6679C51.7716 78.6682 52.9892 77.0967 52.5735 75.4839Z" fill="url(#paint9_linear)"/>
<path d="M49.2532 62.6094C48.2553 58.7398 44.7657 56.0358 40.7694 56.0358H39.1118V105.331H43.5091C45.7454 105.331 47.5579 103.518 47.5579 101.282V81.216C47.5579 79.8038 48.714 78.679 50.1262 78.668C51.7812 78.6552 52.9873 77.0902 52.5732 75.484L49.2532 62.6094Z" fill="url(#paint10_linear)"/>
<path d="M108.622 42.4005C108.622 48.8797 103.368 54.132 96.8877 54.132C90.4074 54.132 85.1538 48.8797 85.1538 42.4005C85.1538 35.9213 90.4071 30.6691 96.8877 30.6691C103.368 30.6691 108.622 35.9216 108.622 42.4005Z" fill="url(#paint11_linear)"/>
<path d="M102.137 31.9064C102.928 33.4856 103.374 35.2677 103.374 37.1541C103.374 43.6333 98.1209 48.8856 91.6404 48.8856C89.7535 48.8856 87.9711 48.4394 86.3916 47.6482C88.318 51.4925 92.2945 54.132 96.8879 54.132C103.368 54.132 108.622 48.8797 108.622 42.4005C108.622 37.808 105.982 33.8325 102.137 31.9064Z" fill="url(#paint12_linear)"/>
<path d="M110.349 75.4839L107.029 62.609C106.031 58.7394 102.541 56.0354 98.5452 56.0354H95.23C91.234 56.0354 87.7441 58.7394 86.7462 62.609L83.4262 75.4839C83.0105 77.0965 84.2281 78.6679 85.8934 78.6679C87.3006 78.6679 88.4414 79.8087 88.4414 81.2159V102.743C88.4414 104.172 89.5998 105.331 91.0289 105.331H102.746C104.175 105.331 105.334 104.172 105.334 102.743V81.2159C105.334 79.8087 106.475 78.6679 107.882 78.6679C109.547 78.6682 110.765 77.0967 110.349 75.4839Z" fill="url(#paint13_linear)"/>
<path d="M107.029 62.6094C106.031 58.7398 102.542 56.0358 98.5453 56.0358H96.8877V105.331H102.746C104.175 105.331 105.334 104.173 105.334 102.744V81.216C105.334 79.8088 106.475 78.668 107.882 78.668C109.547 78.668 110.765 77.0966 110.349 75.484L107.029 62.6094Z" fill="url(#paint14_linear)"/>
<path d="M61 99.6364C61 97.824 61.7393 96.2847 63.2176 95.0175C64.6962 93.7499 66.4933 93.1145 68.6054 93.1145C70.4656 93.1145 72.0736 93.7499 73.4295 95.0175C74.7858 96.2847 75.4661 97.824 75.4661 99.6364C75.4661 101.376 74.7863 102.897 73.4295 104.201C72.0736 105.506 70.4653 106.158 68.6054 106.158C66.493 106.158 64.6962 105.506 63.2176 104.201C61.7393 102.897 61 101.376 61 99.6364ZM61.7115 35.7824C61.7115 33.9368 62.3394 32.5112 63.5958 31.5069C64.8518 30.5026 66.4785 30 68.4758 30C70.4731 30 71.9406 30.5229 72.8762 31.5677C73.8116 32.6125 74.2805 34.017 74.2805 35.7824C74.2805 41.5671 74.1803 44.2541 73.9841 57.345C73.7859 70.4364 73.688 74.5615 73.688 80.3439C73.688 81.5505 73.123 82.495 71.9946 83.1766C70.8643 83.8585 69.6915 84.1998 68.4761 84.1998C64.9154 84.1998 63.1348 82.9156 63.1348 80.3439C63.1348 74.5615 62.8973 70.4364 62.4233 57.345C61.9484 44.2539 61.7115 41.5668 61.7115 35.7824Z" fill="#818EFF"/>
<defs>
<linearGradient id="paint0_linear" x1="35.3733" y1="35.373" x2="118.762" y2="118.762" gradientUnits="userSpaceOnUse">
<stop stop-color="#EDF5FF"/>
<stop offset="1" stop-color="#D5E8FE"/>
</linearGradient>
<linearGradient id="paint1_linear" x1="58.7698" y1="62.1285" x2="23.7653" y2="27.124" gradientUnits="userSpaceOnUse">
<stop stop-color="#07485E" stop-opacity="0"/>
<stop offset="0.2708" stop-color="#074459" stop-opacity="0.271"/>
<stop offset="0.597" stop-color="#05394A" stop-opacity="0.597"/>
<stop offset="0.9505" stop-color="#032632" stop-opacity="0.951"/>
<stop offset="1" stop-color="#03232E"/>
</linearGradient>
<linearGradient id="paint2_linear" x1="119.445" y1="65.6957" x2="79.1783" y2="20.7624" gradientUnits="userSpaceOnUse">
<stop stop-color="#07485E" stop-opacity="0"/>
<stop offset="0.2708" stop-color="#074459" stop-opacity="0.271"/>
<stop offset="0.597" stop-color="#05394A" stop-opacity="0.597"/>
<stop offset="0.9505" stop-color="#032632" stop-opacity="0.951"/>
<stop offset="1" stop-color="#03232E"/>
</linearGradient>
<linearGradient id="paint3_linear" x1="116.94" y1="93.7805" x2="72.5844" y2="71.6472" gradientUnits="userSpaceOnUse">
<stop stop-color="#07485E" stop-opacity="0"/>
<stop offset="0.2708" stop-color="#074459" stop-opacity="0.271"/>
<stop offset="0.597" stop-color="#05394A" stop-opacity="0.597"/>
<stop offset="0.9505" stop-color="#032632" stop-opacity="0.951"/>
<stop offset="1" stop-color="#03232E"/>
</linearGradient>
<linearGradient id="paint4_linear" x1="47.1865" y1="86.0722" x2="29.4531" y2="56.6056" gradientUnits="userSpaceOnUse">
<stop stop-color="#07485E" stop-opacity="0"/>
<stop offset="0.2708" stop-color="#074459" stop-opacity="0.271"/>
<stop offset="0.597" stop-color="#05394A" stop-opacity="0.597"/>
<stop offset="0.9505" stop-color="#032632" stop-opacity="0.951"/>
<stop offset="1" stop-color="#03232E"/>
</linearGradient>
<linearGradient id="paint5_linear" x1="102.495" y1="102.495" x2="26.5179" y2="26.5179" gradientUnits="userSpaceOnUse">
<stop offset="0.0688031" stop-color="#808DFF"/>
<stop offset="1" stop-color="#6776FC"/>
</linearGradient>
<linearGradient id="paint6_linear" x1="33.5051" y1="33.5051" x2="109.482" y2="109.482" gradientUnits="userSpaceOnUse">
<stop stop-color="#6776FC"/>
<stop offset="1" stop-color="#6776FC"/>
</linearGradient>
<linearGradient id="paint7_linear" x1="34.7222" y1="38.0109" x2="49.9179" y2="53.2064" gradientUnits="userSpaceOnUse">
<stop stop-color="#FFDA2D"/>
<stop offset="1" stop-color="#FDBF00"/>
</linearGradient>
<linearGradient id="paint8_linear" x1="39.5192" y1="46.897" x2="55.6456" y2="16.9045" gradientUnits="userSpaceOnUse">
<stop stop-color="#FF9100" stop-opacity="0"/>
<stop offset="1" stop-color="#FF9100"/>
</linearGradient>
<linearGradient id="paint9_linear" x1="25.5687" y1="80.6831" x2="52.6554" y2="80.6831" gradientUnits="userSpaceOnUse">
<stop stop-color="#FFDA2D"/>
<stop offset="1" stop-color="#FDBF00"/>
</linearGradient>
<linearGradient id="paint10_linear" x1="46.9761" y1="84.5182" x2="16.3467" y2="63.9078" gradientUnits="userSpaceOnUse">
<stop stop-color="#FF9100" stop-opacity="0"/>
<stop offset="1" stop-color="#FF9100"/>
</linearGradient>
<linearGradient id="paint11_linear" x1="92.4978" y1="38.0109" x2="107.694" y2="53.2064" gradientUnits="userSpaceOnUse">
<stop stop-color="#FFDA2D"/>
<stop offset="1" stop-color="#FDBF00"/>
</linearGradient>
<linearGradient id="paint12_linear" x1="97.2953" y1="46.897" x2="113.421" y2="16.9045" gradientUnits="userSpaceOnUse">
<stop stop-color="#FF9100" stop-opacity="0"/>
<stop offset="1" stop-color="#FF9100"/>
</linearGradient>
<linearGradient id="paint13_linear" x1="83.3444" y1="80.6831" x2="110.431" y2="80.6831" gradientUnits="userSpaceOnUse">
<stop stop-color="#FFDA2D"/>
<stop offset="1" stop-color="#FDBF00"/>
</linearGradient>
<linearGradient id="paint14_linear" x1="105.072" y1="84.7334" x2="73.916" y2="63.7686" gradientUnits="userSpaceOnUse">
<stop stop-color="#FF9100" stop-opacity="0"/>
<stop offset="1" stop-color="#FF9100"/>
</linearGradient>
</defs>
</svg>
