<svg width="348" height="180" viewBox="0 0 348 180" fill="none" xmlns="http://www.w3.org/2000/svg">
<rect width="347" height="179" rx="13" fill="white"/>
<path d="M258.448 146.433C304.233 165.526 339.488 135.62 347.034 128.431V19C201.64 19.7187 218.47 104.484 110.898 98.7465C2.84833 92.9914 16.5621 179.078 16.5621 179.078H162.379C157.604 139.078 206.672 124.839 258.448 146.433Z" fill="#F9FBFF"/>
<rect width="136" height="136" transform="translate(105 22)" fill="white"/>
<path d="M173 155.621C209.242 155.621 238.621 126.241 238.621 90C238.621 53.7586 209.242 24.3792 173 24.3792C136.759 24.3792 107.379 53.7586 107.379 90C107.379 126.241 136.759 155.621 173 155.621Z" fill="url(#paint0_linear)"/>
<path d="M183.537 120.348C188.519 113.567 191.802 105.461 192.759 96.6557L153.108 57.0053C150.965 54.4371 147.74 53.2024 144.132 53.2024C137.679 53.2024 132.645 58.2323 132.645 64.6861C132.645 68.2933 134.083 71.3149 136.647 73.4584L171.798 108.609L183.537 120.348Z" fill="url(#paint1_linear)"/>
<path d="M202.24 53.2024C195.787 53.2024 190.753 58.2323 190.753 64.6861C190.753 68.2933 192.191 71.3149 194.755 73.4584L229.905 108.609L234.424 113.127C237.134 105.934 238.621 98.1411 238.621 90C238.621 88.0269 238.528 86.076 238.358 84.1472L211.216 57.0053C209.073 54.4371 205.848 53.2024 202.24 53.2024Z" fill="url(#paint2_linear)"/>
<path d="M210.836 81.725C209.211 79.6541 206.694 78.3629 203.937 78.3629H200.621C200.23 78.3629 199.846 78.3901 199.466 78.4405C195.968 78.9021 193.036 81.4459 192.136 84.9362L188.817 97.8152C188.48 99.1221 192.948 98.9845 194.127 99.4229C194.127 99.4229 193.641 104.361 193.831 104.582V125.074C193.831 126.179 194.525 127.118 195.499 127.49L204.6 136.591H219.206C227.272 128.591 233.27 118.511 236.332 107.222L210.836 81.725Z" fill="url(#paint3_linear)"/>
<path d="M153.016 81.725C151.392 79.6541 148.874 78.3629 146.117 78.3629H142.802C142.41 78.3629 142.026 78.3901 141.646 78.4405C138.148 78.9021 135.216 81.4459 134.317 84.9362L130.997 97.8152C130.66 99.1221 131.397 100.402 132.576 100.84C132.576 100.84 135.821 104.361 136.012 104.582V125.074C136.012 126.179 136.706 127.118 137.679 127.49L146.781 136.591H161.386C169.453 128.591 175.45 118.511 178.513 107.222L153.016 81.725Z" fill="url(#paint4_linear)"/>
<path d="M173 158C210.555 158 241 127.555 241 90C241 52.4453 210.555 22 173 22C135.445 22 105 52.4453 105 90C105 127.555 135.445 158 173 158ZM173 37.0107C202.173 37.0107 225.821 60.736 225.821 90C225.821 119.264 202.173 142.989 173 142.989C143.827 142.989 120.179 119.264 120.179 90C120.179 60.736 143.827 37.0107 173 37.0107Z" fill="url(#paint5_linear)"/>
<path d="M173 22C135.445 22 105 52.4453 105 90C105 127.555 135.445 158 173 158C210.555 158 241 127.555 241 90C241 52.4453 210.555 22 173 22ZM173 152.822C138.305 152.822 110.178 124.695 110.178 90C110.178 55.3053 138.305 27.1784 173 27.1784C207.695 27.1784 235.822 55.3053 235.822 90C235.822 124.695 207.695 152.822 173 152.822Z" fill="url(#paint6_linear)"/>
<path d="M155.846 64.4005C155.846 70.8797 150.592 76.132 144.112 76.132C137.632 76.132 132.378 70.8797 132.378 64.4005C132.378 57.9213 137.631 52.6691 144.112 52.6691C150.592 52.6691 155.846 57.9216 155.846 64.4005Z" fill="url(#paint7_linear)"/>
<path d="M149.361 53.9064C150.152 55.4856 150.598 57.2677 150.598 59.1541C150.598 65.6333 145.345 70.8856 138.865 70.8856C136.978 70.8856 135.195 70.4394 133.616 69.6482C135.542 73.4925 139.519 76.132 144.112 76.132C150.592 76.132 155.846 70.8797 155.846 64.4005C155.846 59.808 153.206 55.8325 149.361 53.9064Z" fill="url(#paint8_linear)"/>
<path d="M157.574 97.4839L154.254 84.609C153.256 80.7394 149.766 78.0354 145.77 78.0354H142.455C138.459 78.0354 134.969 80.7394 133.971 84.609L130.651 97.4839C130.235 99.0965 131.453 100.668 133.118 100.668C134.525 100.668 135.666 101.809 135.666 103.216V124.743C135.666 126.172 136.824 127.331 138.254 127.331H148.474C150.73 127.331 152.558 125.502 152.558 123.246V103.216C152.558 101.809 153.699 100.668 155.106 100.668C156.772 100.668 157.989 99.0967 157.574 97.4839Z" fill="url(#paint9_linear)"/>
<path d="M154.253 84.6094C153.255 80.7398 149.766 78.0358 145.769 78.0358H144.112V127.331H148.509C150.745 127.331 152.558 125.518 152.558 123.282V103.216C152.558 101.804 153.714 100.679 155.126 100.668C156.781 100.655 157.987 99.0902 157.573 97.484L154.253 84.6094Z" fill="url(#paint10_linear)"/>
<path d="M213.622 64.4005C213.622 70.8797 208.368 76.132 201.888 76.132C195.407 76.132 190.154 70.8797 190.154 64.4005C190.154 57.9213 195.407 52.6691 201.888 52.6691C208.368 52.6691 213.622 57.9216 213.622 64.4005Z" fill="url(#paint11_linear)"/>
<path d="M207.137 53.9064C207.928 55.4856 208.374 57.2677 208.374 59.1541C208.374 65.6333 203.121 70.8856 196.64 70.8856C194.753 70.8856 192.971 70.4394 191.392 69.6482C193.318 73.4925 197.295 76.132 201.888 76.132C208.368 76.132 213.622 70.8797 213.622 64.4005C213.622 59.808 210.982 55.8325 207.137 53.9064Z" fill="url(#paint12_linear)"/>
<path d="M215.349 97.4839L212.029 84.609C211.031 80.7394 207.541 78.0354 203.545 78.0354H200.23C196.234 78.0354 192.744 80.7394 191.746 84.609L188.426 97.4839C188.01 99.0965 189.228 100.668 190.893 100.668C192.301 100.668 193.441 101.809 193.441 103.216V124.743C193.441 126.172 194.6 127.331 196.029 127.331H207.746C209.175 127.331 210.334 126.172 210.334 124.743V103.216C210.334 101.809 211.475 100.668 212.882 100.668C214.547 100.668 215.765 99.0967 215.349 97.4839Z" fill="url(#paint13_linear)"/>
<path d="M212.029 84.6094C211.031 80.7398 207.542 78.0358 203.545 78.0358H201.888V127.331H207.746C209.175 127.331 210.334 126.173 210.334 124.744V103.216C210.334 101.809 211.475 100.668 212.882 100.668C214.547 100.668 215.765 99.0966 215.349 97.484L212.029 84.6094Z" fill="url(#paint14_linear)"/>
<path d="M166 121.636C166 119.824 166.739 118.285 168.218 117.018C169.696 115.75 171.493 115.114 173.605 115.114C175.466 115.114 177.074 115.75 178.43 117.018C179.786 118.285 180.466 119.824 180.466 121.636C180.466 123.376 179.786 124.897 178.43 126.201C177.074 127.506 175.465 128.158 173.605 128.158C171.493 128.158 169.696 127.506 168.218 126.201C166.739 124.897 166 123.376 166 121.636ZM166.711 57.7824C166.711 55.9368 167.339 54.5112 168.596 53.5069C169.852 52.5026 171.478 52 173.476 52C175.473 52 176.941 52.5229 177.876 53.5677C178.812 54.6125 179.281 56.017 179.281 57.7824C179.281 63.5671 179.18 66.2541 178.984 79.345C178.786 92.4364 178.688 96.5615 178.688 102.344C178.688 103.55 178.123 104.495 176.995 105.177C175.864 105.859 174.692 106.2 173.476 106.2C169.915 106.2 168.135 104.916 168.135 102.344C168.135 96.5615 167.897 92.4364 167.423 79.345C166.948 66.2539 166.711 63.5668 166.711 57.7824Z" fill="#818EFF"/>
<defs>
<linearGradient id="paint0_linear" x1="140.373" y1="57.373" x2="223.762" y2="140.762" gradientUnits="userSpaceOnUse">
<stop stop-color="#EDF5FF"/>
<stop offset="1" stop-color="#D5E8FE"/>
</linearGradient>
<linearGradient id="paint1_linear" x1="163.77" y1="84.1285" x2="128.765" y2="49.124" gradientUnits="userSpaceOnUse">
<stop stop-color="#07485E" stop-opacity="0"/>
<stop offset="0.2708" stop-color="#074459" stop-opacity="0.271"/>
<stop offset="0.597" stop-color="#05394A" stop-opacity="0.597"/>
<stop offset="0.9505" stop-color="#032632" stop-opacity="0.951"/>
<stop offset="1" stop-color="#03232E"/>
</linearGradient>
<linearGradient id="paint2_linear" x1="224.445" y1="87.6957" x2="184.178" y2="42.7624" gradientUnits="userSpaceOnUse">
<stop stop-color="#07485E" stop-opacity="0"/>
<stop offset="0.2708" stop-color="#074459" stop-opacity="0.271"/>
<stop offset="0.597" stop-color="#05394A" stop-opacity="0.597"/>
<stop offset="0.9505" stop-color="#032632" stop-opacity="0.951"/>
<stop offset="1" stop-color="#03232E"/>
</linearGradient>
<linearGradient id="paint3_linear" x1="221.94" y1="115.781" x2="177.584" y2="93.6472" gradientUnits="userSpaceOnUse">
<stop stop-color="#07485E" stop-opacity="0"/>
<stop offset="0.2708" stop-color="#074459" stop-opacity="0.271"/>
<stop offset="0.597" stop-color="#05394A" stop-opacity="0.597"/>
<stop offset="0.9505" stop-color="#032632" stop-opacity="0.951"/>
<stop offset="1" stop-color="#03232E"/>
</linearGradient>
<linearGradient id="paint4_linear" x1="152.186" y1="108.072" x2="134.453" y2="78.6056" gradientUnits="userSpaceOnUse">
<stop stop-color="#07485E" stop-opacity="0"/>
<stop offset="0.2708" stop-color="#074459" stop-opacity="0.271"/>
<stop offset="0.597" stop-color="#05394A" stop-opacity="0.597"/>
<stop offset="0.9505" stop-color="#032632" stop-opacity="0.951"/>
<stop offset="1" stop-color="#03232E"/>
</linearGradient>
<linearGradient id="paint5_linear" x1="207.495" y1="124.495" x2="131.518" y2="48.5179" gradientUnits="userSpaceOnUse">
<stop offset="0.0688031" stop-color="#808DFF"/>
<stop offset="1" stop-color="#6776FC"/>
</linearGradient>
<linearGradient id="paint6_linear" x1="138.505" y1="55.5051" x2="214.482" y2="131.482" gradientUnits="userSpaceOnUse">
<stop stop-color="#6776FC"/>
<stop offset="1" stop-color="#6776FC"/>
</linearGradient>
<linearGradient id="paint7_linear" x1="139.722" y1="60.0109" x2="154.918" y2="75.2064" gradientUnits="userSpaceOnUse">
<stop stop-color="#FFDA2D"/>
<stop offset="1" stop-color="#FDBF00"/>
</linearGradient>
<linearGradient id="paint8_linear" x1="144.519" y1="68.897" x2="160.646" y2="38.9045" gradientUnits="userSpaceOnUse">
<stop stop-color="#FF9100" stop-opacity="0"/>
<stop offset="1" stop-color="#FF9100"/>
</linearGradient>
<linearGradient id="paint9_linear" x1="130.569" y1="102.683" x2="157.655" y2="102.683" gradientUnits="userSpaceOnUse">
<stop stop-color="#FFDA2D"/>
<stop offset="1" stop-color="#FDBF00"/>
</linearGradient>
<linearGradient id="paint10_linear" x1="151.976" y1="106.518" x2="121.347" y2="85.9078" gradientUnits="userSpaceOnUse">
<stop stop-color="#FF9100" stop-opacity="0"/>
<stop offset="1" stop-color="#FF9100"/>
</linearGradient>
<linearGradient id="paint11_linear" x1="197.498" y1="60.0109" x2="212.694" y2="75.2064" gradientUnits="userSpaceOnUse">
<stop stop-color="#FFDA2D"/>
<stop offset="1" stop-color="#FDBF00"/>
</linearGradient>
<linearGradient id="paint12_linear" x1="202.295" y1="68.897" x2="218.421" y2="38.9045" gradientUnits="userSpaceOnUse">
<stop stop-color="#FF9100" stop-opacity="0"/>
<stop offset="1" stop-color="#FF9100"/>
</linearGradient>
<linearGradient id="paint13_linear" x1="188.344" y1="102.683" x2="215.431" y2="102.683" gradientUnits="userSpaceOnUse">
<stop stop-color="#FFDA2D"/>
<stop offset="1" stop-color="#FDBF00"/>
</linearGradient>
<linearGradient id="paint14_linear" x1="210.072" y1="106.733" x2="178.916" y2="85.7686" gradientUnits="userSpaceOnUse">
<stop stop-color="#FF9100" stop-opacity="0"/>
<stop offset="1" stop-color="#FF9100"/>
</linearGradient>
</defs>
</svg>
