<svg width="120" height="120" viewBox="0 0 120 120" fill="none" xmlns="http://www.w3.org/2000/svg">
<path d="M102.49 119.977H17.5094C4.51006 119.977 -3.94478 106.297 1.86866 94.6696L44.3587 9.68878C50.8031 -3.19997 69.1959 -3.19997 75.6403 9.68878L118.13 94.6694C123.944 106.297 115.489 119.977 102.49 119.977Z" fill="url(#paint0_linear)"/>
<path d="M102.49 119.977H17.5094C4.51006 119.977 -3.94478 106.297 1.86866 94.6696L44.3587 9.68878C50.8031 -3.19997 69.1959 -3.19997 75.6403 9.68878L118.13 94.6694C123.944 106.297 115.489 119.977 102.49 119.977Z" fill="url(#paint1_linear)"/>
<path d="M113.921 96.7744L71.4314 11.7938C69.2194 7.36969 64.9458 4.72852 59.9998 4.72852C55.0537 4.72852 50.7802 7.36969 48.5681 11.7938L6.07782 96.7744C4.08235 100.765 4.29141 105.414 6.63727 109.21C8.98313 113.005 13.0477 115.271 17.5095 115.271H102.49C106.952 115.271 111.016 113.005 113.362 109.21C115.708 105.414 115.917 100.766 113.921 96.7744ZM109.359 106.736C107.877 109.134 105.309 110.565 102.49 110.565H17.5095C14.6904 110.565 12.1223 109.134 10.6404 106.736C9.15821 104.338 9.02602 101.4 10.287 98.8788L52.777 13.8984C54.1955 11.0616 56.8277 9.43453 59.9995 9.43453C63.1713 9.43453 65.8038 11.0616 67.222 13.8984L109.712 98.8791C110.973 101.4 110.841 104.338 109.359 106.736Z" fill="url(#paint2_linear)"/>
<path d="M102.489 119.976H95.7972L57.1173 81.2965C55.9738 80.7366 55.3996 79.7695 55.3996 78.3884C55.3996 73.1695 55.1854 69.4472 54.7572 57.6354C54.329 45.8259 54.1147 43.4002 54.1147 38.1813C54.1147 36.5154 54.6817 35.2308 55.8158 34.3249C56.9476 33.4167 58.4158 32.9648 60.2181 32.9648C62.0204 32.9648 63.3451 33.4355 64.1875 34.3791C64.3499 34.5579 99.6109 69.8072 111.782 81.9741L118.131 94.6704C123.945 106.296 115.489 119.976 102.489 119.976Z" fill="url(#paint3_linear)"/>
<path d="M93.0399 119.976H75.5388L55.4754 99.9128C54.1413 98.7363 53.4731 97.3647 53.4731 95.7951C53.4731 94.1599 54.1413 92.7693 55.4754 91.6258C56.8095 90.4823 58.4306 89.9104 60.3366 89.9104C62.0142 89.9104 63.466 90.4823 64.6894 91.6258L93.0399 119.976Z" fill="url(#paint4_linear)"/>
<path d="M53.4736 95.7942C53.4736 94.159 54.1407 92.7701 55.4745 91.6268C56.8086 90.483 58.43 89.9097 60.3357 89.9097C62.014 89.9097 63.4648 90.483 64.6882 91.6268C65.9119 92.7701 66.5257 94.159 66.5257 95.7942C66.5257 97.3636 65.9124 98.7363 64.6882 99.9129C63.4648 101.09 62.0138 101.678 60.3357 101.678C58.4297 101.678 56.8086 101.09 55.4745 99.9129C54.1407 98.7363 53.4736 97.3638 53.4736 95.7942ZM54.1156 38.1815C54.1156 36.5163 54.6821 35.2301 55.8157 34.324C56.9489 33.4179 58.4166 32.9644 60.2187 32.9644C62.0208 32.9644 63.3448 33.4362 64.189 34.3788C65.033 35.3215 65.4561 36.5887 65.4561 38.1815C65.4561 43.4008 65.3656 45.8252 65.1886 57.6365C65.0098 69.4483 64.9215 73.1702 64.9215 78.3874C64.9215 79.4761 64.4117 80.3283 63.3936 80.9433C62.3738 81.5585 61.3156 81.8665 60.2189 81.8665C57.0064 81.8665 55.3997 80.7077 55.3997 78.3874C55.3997 73.1702 55.1855 69.4483 54.7578 57.6365C54.3293 45.825 54.1156 43.4006 54.1156 38.1815Z" fill="white"/>
<defs>
<linearGradient id="paint0_linear" x1="30.0963" y1="51.327" x2="166.983" y2="188.214" gradientUnits="userSpaceOnUse">
<stop stop-color="#FF4D3D"/>
<stop offset="1" stop-color="#DA2032"/>
</linearGradient>
<linearGradient id="paint1_linear" x1="48.2679" y1="69.4981" x2="89.5306" y2="110.758" gradientUnits="userSpaceOnUse">
<stop stop-color="#FF4D3D"/>
<stop offset="1" stop-color="#DA2032"/>
</linearGradient>
<linearGradient id="paint2_linear" x1="4.71672" y1="60.0012" x2="115.281" y2="60.0012" gradientUnits="userSpaceOnUse">
<stop stop-color="#FFC8C3"/>
<stop offset="1" stop-color="#FF988F"/>
</linearGradient>
<linearGradient id="paint3_linear" x1="99.1784" y1="96.4923" x2="32.3352" y2="29.649" gradientUnits="userSpaceOnUse">
<stop stop-color="#BE3F45" stop-opacity="0"/>
<stop offset="1" stop-color="#BE3F45"/>
</linearGradient>
<linearGradient id="paint4_linear" x1="77.5352" y1="113.235" x2="55.7309" y2="91.4281" gradientUnits="userSpaceOnUse">
<stop stop-color="#BE3F45" stop-opacity="0"/>
<stop offset="1" stop-color="#BE3F45"/>
</linearGradient>
</defs>
</svg>
