<svg width="76" height="76" viewBox="0 0 76 76" fill="none" xmlns="http://www.w3.org/2000/svg">
<path d="M38 76C37.7315 76 37.4633 75.9515 37.2081 75.8546C29.1668 72.7945 22.4331 67.8017 17.194 61.0148C13.0365 55.6291 9.81961 49.1189 7.63253 41.6654C3.93629 29.068 4.45092 18.2175 4.47482 17.7618C4.51638 16.9611 4.98544 16.2446 5.70255 15.8861L37.0043 0.235014C37.6312 -0.0783379 38.3689 -0.0783379 38.9957 0.235014L70.2975 15.886C71.0146 16.2444 71.4837 16.961 71.5252 17.7616C71.549 18.2173 72.0638 29.0678 68.3675 41.6653C66.1804 49.1189 62.9635 55.6289 58.8061 61.0147C53.567 67.8015 46.8332 72.7942 38.7919 75.8544C38.5368 75.9514 38.2684 76 38 76Z" fill="#27334A"/>
<path d="M70.2975 15.8859L38.9957 0.234977C38.6824 0.078375 38.3411 0 38 0V76C38.2684 76 38.5368 75.9515 38.7918 75.8545C46.8331 72.7945 53.5668 67.8017 58.8059 61.0148C62.9633 55.629 66.1803 49.1189 68.3673 41.6654C72.0636 29.0679 71.549 18.2174 71.5251 17.7617C71.4836 16.9609 71.0146 16.2444 70.2975 15.8859Z" fill="#27153E"/>
<path d="M37.9997 71C37.6002 71 37.2004 70.9099 36.8329 70.7298C25.1093 64.9871 16.8765 54.5684 12.3634 39.7634C10.1062 32.3585 9.29124 25.3809 9.00514 20.8314C8.93932 19.7867 9.51047 18.8044 10.4555 18.3362L36.8225 5.27525C37.5637 4.90834 38.4361 4.90816 39.1773 5.27525L65.5445 18.3362C66.4895 18.8042 67.0607 19.7869 66.9949 20.8316C66.7086 25.3814 65.8936 32.3592 63.6364 39.7634C59.1233 54.5684 50.8906 64.9871 39.167 70.7298C38.7989 70.9099 38.3992 71 37.9997 71Z" fill="#0055FF"/>
<path d="M28 9.6455L10.4555 18.3362C9.51047 18.8044 8.93932 19.7867 9.00514 20.8314C9.29124 25.3809 10.1062 32.3585 12.3634 39.7634C15.6419 50.5184 20.8834 58.9586 28 64.9731V9.6455Z" fill="#DA2032"/>
<path d="M47 65.7923C54.6273 59.7347 60.2062 51.016 63.6364 39.7634C65.8936 32.3592 66.7086 25.3814 66.9949 20.8316C67.0607 19.7869 66.4895 18.8042 65.5445 18.3362L47 9.15021V65.7923Z" fill="#DA2032"/>
<path d="M53.2331 31.5338C55.3086 31.5338 57 29.8445 57 27.7669C57 25.6914 55.3107 24 53.2331 24C51.1555 24 49.4662 25.6893 49.4662 27.7669C49.4662 29.8445 51.1555 31.5338 53.2331 31.5338ZM53.2331 26.0224C54.1966 26.0224 54.9797 26.8055 54.9797 27.7689C54.9797 28.7324 54.1966 29.5155 53.2331 29.5155C52.2696 29.5155 51.4865 28.7324 51.4865 27.7689C51.4865 26.8055 52.2696 26.0224 53.2331 26.0224Z" fill="white"/>
<path d="M47.032 41.4678C49.1075 41.4678 50.7989 39.7786 50.7989 37.7009C50.7989 35.6233 49.1096 33.9341 47.032 33.9341C44.9544 33.9341 43.2651 35.6233 43.2651 37.7009C43.2673 39.7786 44.9565 41.4678 47.032 41.4678ZM47.032 35.9564C47.9955 35.9564 48.7786 36.7395 48.7786 37.703C48.7786 38.6665 47.9955 39.4496 47.032 39.4496C46.0685 39.4496 45.2855 38.6665 45.2855 37.703C45.2855 36.7395 46.0707 35.9564 47.032 35.9564Z" fill="white"/>
<path d="M34.0081 32.9323L41.2533 32.9323C41.5207 32.9323 41.7776 32.8262 41.9685 32.6373L45.8267 28.7792L50.4721 28.7792C51.0302 28.7792 51.4822 28.3272 51.4822 27.7691C51.4822 27.2109 51.0302 26.7589 50.4721 26.7589L45.4085 26.7589C45.1411 26.7589 44.8843 26.865 44.6933 27.0538L40.8351 30.912L34.0102 30.912C33.452 30.912 33 31.364 33 31.9221C32.998 32.4781 33.4501 32.9323 34.0081 32.9323Z" fill="white"/>
<path d="M45.0839 36.7629C45.3427 36.7629 45.6017 36.6653 45.7991 36.4679C46.1938 36.0732 46.1938 35.4344 45.7991 35.0397L41.9685 31.2069C41.5738 30.8122 40.935 30.8122 40.5403 31.2069C40.1455 31.6017 40.1455 32.2405 40.5403 32.6352L44.3708 36.4679C44.566 36.6653 44.8249 36.7629 45.0839 36.7629Z" fill="white"/>
<path d="M37.2331 37.934C39.3086 37.934 41 39.6233 41 41.7009C41 43.7764 39.3107 45.4678 37.2331 45.4678C35.1555 45.4678 33.4662 43.7786 33.4662 41.7009C33.4662 39.6233 35.1555 37.934 37.2331 37.934ZM37.2331 43.4454C38.1966 43.4454 38.9797 42.6624 38.9797 41.6989C38.9797 40.7354 38.1966 39.9523 37.2331 39.9523C36.2696 39.9523 35.4865 40.7354 35.4865 41.6989C35.4865 42.6624 36.2696 43.4454 37.2331 43.4454Z" fill="white"/>
<path d="M31.032 28C33.1075 28 34.7989 29.6893 34.7989 31.7669C34.7989 33.8445 33.1096 35.5338 31.032 35.5338C28.9544 35.5338 27.2651 33.8445 27.2651 31.7669C27.2673 29.6893 28.9565 28 31.032 28ZM31.032 33.5114C31.9955 33.5114 32.7786 32.7283 32.7786 31.7648C32.7786 30.8014 31.9955 30.0183 31.032 30.0183C30.0685 30.0183 29.2855 30.8014 29.2855 31.7648C29.2855 32.7283 30.0707 33.5114 31.032 33.5114Z" fill="white"/>
<path d="M18.0081 36.5355L25.2533 36.5355C25.5207 36.5355 25.7776 36.6417 25.9685 36.8305L29.8267 40.6886L34.4721 40.6886C35.0302 40.6886 35.4822 41.1406 35.4822 41.6988C35.4822 42.2569 35.0302 42.709 34.4721 42.709L29.4085 42.709C29.1411 42.709 28.8843 42.6028 28.6933 42.414L24.8351 38.5559L18.0102 38.5559C17.452 38.5559 17 38.1039 17 37.5457C16.998 36.9897 17.4501 36.5355 18.0081 36.5355Z" fill="white"/>
<path d="M29.0839 32.705C29.3427 32.705 29.6017 32.8026 29.7991 32.9999C30.1938 33.3947 30.1938 34.0334 29.7991 34.4282L25.9685 38.2609C25.5738 38.6556 24.935 38.6556 24.5403 38.2609C24.1455 37.8662 24.1455 37.2274 24.5403 36.8327L28.3708 32.9999C28.566 32.8026 28.8249 32.705 29.0839 32.705Z" fill="white"/>
</svg>
