<svg width="230" height="40" viewBox="0 0 230 40" fill="none" xmlns="http://www.w3.org/2000/svg">
<path d="M36.6973 26.2197C39.7646 26.2197 41.9883 24.2949 42.2344 21.5967L42.2432 21.5H39.6592L39.6416 21.5879C39.2988 23.0908 38.2266 23.9697 36.6973 23.9697C34.667 23.9697 33.3662 22.3174 33.3662 19.6455V19.6367C33.3662 16.9824 34.667 15.3477 36.6973 15.3477C38.2793 15.3477 39.3164 16.2617 39.6152 17.6592L39.6504 17.8086H42.2344L42.2256 17.7295C41.9795 15.04 39.7734 13.0977 36.6973 13.0977C32.9971 13.0977 30.6592 15.5586 30.6592 19.6455V19.6543C30.6592 23.7412 32.9883 26.2197 36.6973 26.2197ZM49.6084 26.2197C53.3789 26.2197 55.7256 23.6973 55.7256 19.6631V19.6455C55.7256 15.6201 53.3701 13.0977 49.6084 13.0977C45.8555 13.0977 43.4912 15.6113 43.4912 19.6455V19.6631C43.4912 23.6973 45.8379 26.2197 49.6084 26.2197ZM49.6084 23.9697C47.5254 23.9697 46.1982 22.3174 46.1982 19.6631V19.6455C46.1982 16.9912 47.5342 15.3477 49.6084 15.3477C51.6914 15.3477 53.0186 17 53.0186 19.6455V19.6631C53.0186 22.291 51.7178 23.9697 49.6084 23.9697ZM60.4365 26H63.6709L67.916 13.3174H64.9717L62.0801 23.2842H62.0273L59.127 13.3174H56.1914L60.4365 26ZM69.2168 26H71.8711V13.3174H69.2168V26ZM73.9805 26H78.8232C82.6289 26 84.8701 23.6357 84.8701 19.6104V19.5928C84.8701 15.5762 82.6201 13.3174 78.8232 13.3174H73.9805V26ZM76.6348 23.8027V15.5059H78.5068C80.8359 15.5059 82.1631 16.9561 82.1631 19.6016V19.6191C82.1631 22.3613 80.8799 23.8027 78.5068 23.8027H76.6348ZM93.1846 26H95.8389V15.5059H99.5127V13.3174H89.5195V15.5059H93.1846V26ZM99.5654 26H102.132V20.6914C102.132 19.3643 102.87 18.5996 104.136 18.5996C104.505 18.5996 104.856 18.6523 105.067 18.7402V16.4814C104.874 16.4287 104.61 16.3848 104.329 16.3848C103.213 16.3848 102.413 17.0439 102.141 18.1865H102.088V16.5781H99.5654V26ZM108.697 26.1494C109.937 26.1494 110.938 25.5605 111.475 24.5938H111.527V26H114.094V19.54C114.094 17.6416 112.521 16.3848 110.086 16.3848C107.599 16.3848 106.104 17.6328 105.964 19.373L105.955 19.4785H108.302L108.319 19.3994C108.442 18.793 109.022 18.3447 109.98 18.3447C110.982 18.3447 111.527 18.8633 111.527 19.6982V20.2783L109.198 20.4189C106.86 20.5684 105.533 21.5703 105.533 23.2842V23.3018C105.533 24.9629 106.808 26.1494 108.697 26.1494ZM108.073 23.1699V23.1523C108.073 22.4844 108.592 22.0625 109.585 22.001L111.527 21.8779V22.5547C111.527 23.5391 110.684 24.2773 109.532 24.2773C108.645 24.2773 108.073 23.8643 108.073 23.1699ZM120.062 26.1934C122.575 26.1934 124.201 24.6289 124.324 22.5723V22.5195H121.934L121.925 22.5986C121.749 23.5479 121.107 24.1807 120.079 24.1807C118.813 24.1807 118.022 23.1348 118.022 21.2891V21.2803C118.022 19.4785 118.813 18.3975 120.07 18.3975C121.134 18.3975 121.758 19.083 121.916 19.9795L121.934 20.0586H124.315V19.9971C124.219 17.958 122.593 16.3848 120.035 16.3848C117.214 16.3848 115.412 18.2568 115.412 21.2715V21.2803C115.412 24.3213 117.188 26.1934 120.062 26.1934ZM126.899 15.3652C127.673 15.3652 128.271 14.7588 128.271 14.0293C128.271 13.2998 127.673 12.6934 126.899 12.6934C126.126 12.6934 125.528 13.2998 125.528 14.0293C125.528 14.7588 126.126 15.3652 126.899 15.3652ZM125.616 26H128.183V16.5781H125.616V26ZM129.905 26H132.472V20.5859C132.472 19.3555 133.201 18.5117 134.353 18.5117C135.504 18.5117 136.084 19.2148 136.084 20.4453V26H138.65V19.918C138.65 17.7119 137.473 16.3848 135.398 16.3848C133.975 16.3848 133.008 17.0439 132.524 18.125H132.472V16.5781H129.905V26ZM144.68 29.2695C147.51 29.2695 149.276 27.8369 149.276 25.7363V16.5781H146.71V18.1865H146.657C146.147 17.0879 145.119 16.3848 143.792 16.3848C141.41 16.3848 139.934 18.1689 139.934 21.1748V21.1836C139.934 24.1104 141.393 25.8682 143.748 25.8682C145.11 25.8682 146.165 25.2441 146.657 24.2598H146.71V25.7012C146.71 26.7559 146.007 27.4414 144.68 27.4414C143.607 27.4414 142.922 27.0371 142.72 26.5713L142.693 26.5098H140.197L140.206 26.5889C140.452 28.1006 142.087 29.2695 144.68 29.2695ZM144.636 23.9873C143.353 23.9873 142.544 22.9414 142.544 21.2451V21.2363C142.544 19.5488 143.361 18.5117 144.636 18.5117C145.884 18.5117 146.719 19.5576 146.719 21.2363V21.2451C146.719 22.9326 145.893 23.9873 144.636 23.9873ZM154.752 26H157.116V17.4219H157.187L160.614 26H162.284L165.703 17.4219H165.782V26H168.146V13.3174H165.079L161.476 22.4316H161.423L157.819 13.3174H154.752V26ZM174.36 26.1934C177.208 26.1934 179.027 24.3652 179.027 21.2891V21.2715C179.027 18.2217 177.173 16.3848 174.352 16.3848C171.539 16.3848 169.693 18.2393 169.693 21.2715V21.2891C169.693 24.3564 171.495 26.1934 174.36 26.1934ZM174.369 24.1807C173.104 24.1807 172.304 23.1348 172.304 21.2891V21.2715C172.304 19.4521 173.112 18.3975 174.352 18.3975C175.6 18.3975 176.417 19.4521 176.417 21.2715V21.2891C176.417 23.126 175.617 24.1807 174.369 24.1807ZM180.354 26H182.921V20.5859C182.921 19.3555 183.65 18.5117 184.802 18.5117C185.953 18.5117 186.533 19.2148 186.533 20.4453V26H189.1V19.918C189.1 17.7119 187.922 16.3848 185.848 16.3848C184.424 16.3848 183.457 17.0439 182.974 18.125H182.921V16.5781H180.354V26ZM195.129 29.2695C197.959 29.2695 199.726 27.8369 199.726 25.7363V16.5781H197.159V18.1865H197.106C196.597 17.0879 195.568 16.3848 194.241 16.3848C191.859 16.3848 190.383 18.1689 190.383 21.1748V21.1836C190.383 24.1104 191.842 25.8682 194.197 25.8682C195.56 25.8682 196.614 25.2441 197.106 24.2598H197.159V25.7012C197.159 26.7559 196.456 27.4414 195.129 27.4414C194.057 27.4414 193.371 27.0371 193.169 26.5713L193.143 26.5098H190.646L190.655 26.5889C190.901 28.1006 192.536 29.2695 195.129 29.2695ZM195.085 23.9873C193.802 23.9873 192.993 22.9414 192.993 21.2451V21.2363C192.993 19.5488 193.811 18.5117 195.085 18.5117C196.333 18.5117 197.168 19.5576 197.168 21.2363V21.2451C197.168 22.9326 196.342 23.9873 195.085 23.9873ZM205.737 26.1934C208.585 26.1934 210.404 24.3652 210.404 21.2891V21.2715C210.404 18.2217 208.55 16.3848 205.729 16.3848C202.916 16.3848 201.07 18.2393 201.07 21.2715V21.2891C201.07 24.3564 202.872 26.1934 205.737 26.1934ZM205.746 24.1807C204.48 24.1807 203.681 23.1348 203.681 21.2891V21.2715C203.681 19.4521 204.489 18.3975 205.729 18.3975C206.977 18.3975 207.794 19.4521 207.794 21.2715V21.2891C207.794 23.126 206.994 24.1807 205.746 24.1807ZM211.793 26H214.359V13.3174H211.793V26ZM217.427 15.3652C218.2 15.3652 218.798 14.7588 218.798 14.0293C218.798 13.2998 218.2 12.6934 217.427 12.6934C216.653 12.6934 216.056 13.2998 216.056 14.0293C216.056 14.7588 216.653 15.3652 217.427 15.3652ZM216.144 26H218.71V16.5781H216.144V26ZM223.236 26.1494C224.476 26.1494 225.478 25.5605 226.014 24.5938H226.066V26H228.633V19.54C228.633 17.6416 227.06 16.3848 224.625 16.3848C222.138 16.3848 220.644 17.6328 220.503 19.373L220.494 19.4785H222.841L222.858 19.3994C222.981 18.793 223.562 18.3447 224.52 18.3447C225.521 18.3447 226.066 18.8633 226.066 19.6982V20.2783L223.737 20.4189C221.399 20.5684 220.072 21.5703 220.072 23.2842V23.3018C220.072 24.9629 221.347 26.1494 223.236 26.1494ZM222.612 23.1699V23.1523C222.612 22.4844 223.131 22.0625 224.124 22.001L226.066 21.8779V22.5547C226.066 23.5391 225.223 24.2773 224.071 24.2773C223.184 24.2773 222.612 23.8643 222.612 23.1699Z" fill="#00133A"/>
<path d="M12 32C11.9152 32 11.8305 31.9847 11.7499 31.9541C9.21057 30.9877 7.08414 29.4111 5.42968 27.2678C4.11681 25.5671 3.10093 23.5112 2.41028 21.1575C1.24304 17.1794 1.40556 13.7529 1.4131 13.609C1.42623 13.3561 1.57435 13.1299 1.80081 13.0167L11.6856 8.07421C11.8835 7.97526 12.1165 7.97526 12.3144 8.07421L22.1992 13.0166C22.4257 13.1298 22.5738 13.3561 22.5869 13.6089C22.5944 13.7528 22.757 17.1793 21.5897 21.1575C20.8991 23.5112 19.8832 25.567 18.5703 27.2678C16.9159 29.411 14.7894 30.9877 12.2501 31.954C12.1695 31.9846 12.0848 32 12 32Z" fill="#27334A"/>
<path d="M22.1992 13.0166L12.3144 8.0742C12.2155 8.02475 12.1077 8 12 8V32C12.0847 32 12.1695 31.9847 12.25 31.9541C14.7894 30.9877 16.9158 29.411 18.5703 27.2678C19.8832 25.5671 20.899 23.5112 21.5897 21.1575C22.7569 17.1793 22.5944 13.7529 22.5869 13.609C22.5738 13.3561 22.4257 13.1298 22.1992 13.0166Z" fill="#27153E"/>
<path d="M12.0001 30.4211C11.8739 30.4211 11.7477 30.3926 11.6316 30.3358C7.92942 28.5223 5.3296 25.2322 3.90442 20.5569C3.19161 18.2185 2.93426 16.015 2.84391 14.5784C2.82312 14.2485 3.00349 13.9383 3.30191 13.7904L11.6283 9.6659C11.8624 9.55003 12.1379 9.54998 12.372 9.6659L20.6984 13.7904C20.9969 13.9382 21.1772 14.2485 21.1565 14.5784C21.066 16.0152 20.8087 18.2187 20.0959 20.5569C18.6707 25.2322 16.0709 28.5223 12.3687 30.3358C12.2525 30.3926 12.1263 30.4211 12.0001 30.4211Z" fill="#0055FF"/>
<path d="M8.84228 11.0459L3.30191 13.7904C3.00349 13.9382 2.82312 14.2484 2.84391 14.5783C2.93426 16.015 3.19161 18.2185 3.90442 20.5569C4.93973 23.9532 6.59492 26.6185 8.84228 28.5178V11.0459Z" fill="#DA2032"/>
<path d="M14.8423 28.7765C17.2509 26.8636 19.0127 24.1103 20.0959 20.5569C20.8087 18.2187 21.066 16.0152 21.1564 14.5784C21.1772 14.2485 20.9969 13.9382 20.6984 13.7904L14.8423 10.8895V28.7765Z" fill="#DA2032"/>
<path d="M16.8105 17.9581C17.4659 17.9581 18 17.4246 18 16.7685C18 16.1131 17.4665 15.579 16.8105 15.579C16.1544 15.579 15.6209 16.1124 15.6209 16.7685C15.6209 17.4246 16.1544 17.9581 16.8105 17.9581ZM16.8105 16.2176C17.1147 16.2176 17.362 16.4649 17.362 16.7692C17.362 17.0734 17.1147 17.3207 16.8105 17.3207C16.5062 17.3207 16.2589 17.0734 16.2589 16.7692C16.2589 16.4649 16.5062 16.2176 16.8105 16.2176Z" fill="white"/>
<path d="M14.8524 21.0952C15.5079 21.0952 16.042 20.5617 16.042 19.9056C16.042 19.2495 15.5085 18.7161 14.8524 18.7161C14.1964 18.7161 13.6629 19.2495 13.6629 19.9056C13.6636 20.5617 14.197 21.0952 14.8524 21.0952ZM14.8524 19.3547C15.1567 19.3547 15.404 19.602 15.404 19.9063C15.404 20.2105 15.1567 20.4578 14.8524 20.4578C14.5482 20.4578 14.3009 20.2105 14.3009 19.9063C14.3009 19.602 14.5489 19.3547 14.8524 19.3547Z" fill="white"/>
<path d="M10.7392 18.3997L13.0271 18.3997C13.1116 18.3997 13.1927 18.3662 13.253 18.3065L14.4714 17.0882L15.9383 17.0882C16.1146 17.0882 16.2573 16.9455 16.2573 16.7692C16.2573 16.5929 16.1146 16.4502 15.9383 16.4502L14.3393 16.4502C14.2548 16.4502 14.1738 16.4837 14.1134 16.5433L12.8951 17.7617L10.7398 17.7617C10.5636 17.7617 10.4208 17.9044 10.4208 18.0807C10.4202 18.2563 10.563 18.3997 10.7392 18.3997Z" fill="white"/>
<path d="M14.2368 19.6093C14.3186 19.6093 14.4003 19.5785 14.4627 19.5162C14.5873 19.3915 14.5873 19.1898 14.4627 19.0652L13.253 17.8548C13.1284 17.7302 12.9266 17.7302 12.802 17.8548C12.6773 17.9795 12.6773 18.1812 12.802 18.3059L14.0116 19.5162C14.0733 19.5785 14.155 19.6093 14.2368 19.6093Z" fill="white"/>
<path d="M11.7577 19.9792C12.4131 19.9792 12.9473 20.5126 12.9473 21.1687C12.9473 21.8241 12.4138 22.3583 11.7577 22.3583C11.1016 22.3583 10.5682 21.8248 10.5682 21.1687C10.5682 20.5126 11.1016 19.9792 11.7577 19.9792ZM11.7577 21.7196C12.062 21.7196 12.3093 21.4723 12.3093 21.1681C12.3093 20.8638 12.062 20.6165 11.7577 20.6165C11.4535 20.6165 11.2062 20.8638 11.2062 21.1681C11.2062 21.4723 11.4535 21.7196 11.7577 21.7196Z" fill="white"/>
<path d="M9.79971 16.8421C10.4551 16.8421 10.9893 17.3756 10.9893 18.0316C10.9893 18.6877 10.4558 19.2212 9.79971 19.2212C9.14362 19.2212 8.61016 18.6877 8.61016 18.0316C8.61085 17.3756 9.1443 16.8421 9.79971 16.8421ZM9.79971 18.5825C10.104 18.5825 10.3513 18.3353 10.3513 18.031C10.3513 17.7267 10.104 17.4795 9.79971 17.4795C9.49546 17.4795 9.24817 17.7267 9.24817 18.031C9.24817 18.3353 9.49614 18.5825 9.79971 18.5825Z" fill="white"/>
<path d="M5.68645 19.5376L7.97441 19.5376C8.05885 19.5376 8.13995 19.5711 8.20026 19.6307L9.41862 20.8491L10.8856 20.8491C11.0618 20.8491 11.2046 20.9918 11.2046 21.1681C11.2046 21.3443 11.0618 21.4871 10.8856 21.4871L9.28656 21.4871C9.20211 21.4871 9.12101 21.4535 9.0607 21.3939L7.84235 20.1756L5.6871 20.1756C5.51084 20.1756 5.3681 20.0328 5.3681 19.8566C5.36745 19.681 5.51023 19.5376 5.68645 19.5376Z" fill="white"/>
<path d="M9.18408 18.3279C9.26582 18.3279 9.3476 18.3587 9.40993 18.4211C9.53458 18.5457 9.53458 18.7474 9.40993 18.8721L8.20028 20.0824C8.07563 20.2071 7.87391 20.2071 7.74926 20.0824C7.6246 19.9578 7.6246 19.756 7.74926 19.6314L8.9589 18.4211C9.02055 18.3587 9.10229 18.3279 9.18408 18.3279Z" fill="white"/>
</svg>
