<svg width="15" height="22" viewBox="0 0 15 22" fill="none" xmlns="http://www.w3.org/2000/svg">
<path d="M2.65464 13.2241C3.20126 13.6871 3.56372 14.3145 3.69468 14.9993H6.87498V10.5451C5.79794 10.2669 4.99998 9.28699 4.99998 8.1242H6.24998C6.24998 8.81345 6.81073 9.3742 7.49998 9.3742C8.18923 9.3742 8.74998 8.81345 8.74998 8.1242H9.99999C9.99999 9.28695 9.20203 10.2669 8.12498 10.5451V14.9992H11.306C11.4384 14.3146 11.8043 13.6841 12.3561 13.2149C14.0363 11.7862 15 9.70287 15 7.4992C15 0.776181 6.80077 -2.52553 2.13147 2.27139C-0.91587 5.40215 -0.65537 10.4202 2.65464 13.2241Z" fill="white"/>
<path d="M7.50001 21.3324C8.87851 21.3324 10 20.2109 10 18.8324H5C5 20.2109 6.1215 21.3324 7.50001 21.3324Z" fill="white"/>
<path d="M3.75 16.2491H11.25V17.5825H3.75V16.2491Z" fill="white"/>
</svg>
