<svg width="138" height="132" viewBox="0 0 138 132" fill="none" xmlns="http://www.w3.org/2000/svg">
<ellipse cx="67.461" cy="66" rx="66.9444" ry="66" fill="url(#paint0_linear)"/>
<path d="M107.046 62.2323C105.364 62.2323 103.681 61.6055 102.389 60.349C93.1001 51.316 80.7978 46.3414 67.7478 46.3414C54.6979 46.3414 42.3956 51.316 33.1066 60.349C30.499 62.8847 26.3 62.8561 23.7277 60.2855C21.1557 57.7146 21.1845 53.5749 23.7921 51.0389C35.5789 39.577 51.1895 33.2646 67.7478 33.2646C84.3062 33.2646 99.9165 39.577 111.703 51.0389C114.311 53.5749 114.34 57.7143 111.768 60.2855C110.47 61.5823 108.758 62.2323 107.046 62.2323Z" fill="url(#paint1_linear)"/>
<path d="M43.478 77.0485C41.7564 77.0485 40.0363 76.3918 38.7373 75.0827C36.1756 72.5016 36.2216 68.3619 38.8399 65.8364C46.6086 58.3429 56.875 54.2161 67.7482 54.2161C78.6216 54.2161 88.8881 58.3429 96.6566 65.8364C99.2746 68.3619 99.3205 72.5014 96.7591 75.0827C94.1972 77.6638 89.9987 77.7091 87.3805 75.1838C82.1053 70.0954 75.133 67.2931 67.748 67.2931C60.3632 67.2931 53.3906 70.0954 48.1155 75.1838C46.8253 76.4282 45.1509 77.0485 43.478 77.0485Z" fill="url(#paint2_linear)"/>
<path d="M77.5861 91.2762C75.9489 91.2762 74.3089 90.6823 73.0265 89.4845C71.5961 88.1487 69.7217 87.4131 67.748 87.4131C65.7744 87.4131 63.9002 88.1487 62.4698 89.4845C59.8104 91.968 55.613 91.8559 53.0942 89.2342C50.5752 86.6128 50.6889 82.4743 53.348 79.9911C57.2525 76.3447 62.3665 74.3364 67.748 74.3364C73.1296 74.3364 78.2436 76.3447 82.148 79.9911C84.8072 82.4743 84.9209 86.6128 82.4019 89.2342C81.0978 90.5914 79.3436 91.2762 77.5861 91.2762Z" fill="url(#paint3_linear)"/>
<path d="M67.7474 39.5414C51.1891 39.5414 35.5785 45.8538 23.7917 57.3157C23.3199 57.7746 22.9337 58.2863 22.6309 58.8314C22.9198 59.3516 23.2838 59.842 23.7273 60.2852C26.2994 62.8558 30.4986 62.8845 33.1062 60.3487C42.3952 51.3158 54.6978 46.3411 67.7474 46.3411C80.7974 46.3411 93.0997 51.3158 102.389 60.3487C103.681 61.6053 105.364 62.232 107.046 62.232C108.758 62.232 110.47 61.5821 111.768 60.285C112.211 59.8417 112.575 59.3514 112.864 58.8312C112.561 58.2861 112.175 57.7741 111.703 57.3154C99.9164 45.8538 84.306 39.5414 67.7474 39.5414Z" fill="url(#paint4_linear)"/>
<path d="M67.7474 60.4929C56.8742 60.4929 46.6077 64.6197 38.839 72.1132C38.3586 72.5766 37.9656 73.0948 37.6587 73.6471C37.9436 74.1599 38.3015 74.644 38.7365 75.0825C40.0355 76.3916 41.7556 77.0482 43.4772 77.0482C45.15 77.0482 46.8244 76.4279 48.1149 75.1836C53.39 70.0951 60.3626 67.2929 67.7474 67.2929C75.1324 67.2929 82.1047 70.0951 87.3798 75.1836C89.9979 77.7089 94.1966 77.6636 96.7585 75.0825C97.1935 74.644 97.5516 74.1601 97.8363 73.6471C97.5294 73.0946 97.1364 72.5763 96.656 72.1129C88.8875 64.6199 78.6208 60.4929 67.7474 60.4929Z" fill="url(#paint5_linear)"/>
<path d="M82.1477 86.2679C78.2433 82.6215 73.1292 80.6132 67.7477 80.6132C62.3662 80.6132 57.2521 82.6215 53.3477 86.2679C52.8322 86.7495 52.4134 87.2936 52.0898 87.8766C52.3581 88.3589 52.6923 88.8161 53.0939 89.2342C55.6124 91.8559 59.81 91.9682 62.4695 89.4845C63.8999 88.1487 65.7743 87.4131 67.7477 87.4131C69.7211 87.4131 71.5958 88.1487 73.0262 89.4845C74.3085 90.6823 75.9486 91.2762 77.586 91.2762C79.3435 91.2762 81.0977 90.5914 82.4018 89.2342C82.8037 88.8161 83.1376 88.3592 83.4058 87.8766C83.082 87.2936 82.6635 86.7495 82.1477 86.2679Z" fill="url(#paint6_linear)"/>
<path d="M67.7478 101.215C70.5315 101.215 72.7881 98.9898 72.7881 96.2454C72.7881 93.501 70.5315 91.2762 67.7478 91.2762C64.9641 91.2762 62.7075 93.501 62.7075 96.2454C62.7075 98.9898 64.9641 101.215 67.7478 101.215Z" fill="url(#paint7_linear)"/>
<path d="M34.1479 102.742C32.6564 102.742 31.1649 102.181 30.027 101.059C27.7508 98.8155 27.7508 95.1771 30.027 92.9334L97.2256 26.6828C99.5014 24.4391 103.192 24.4391 105.468 26.6828C107.744 28.9264 107.744 32.5648 105.468 34.8085L38.2688 101.059C37.1309 102.181 35.6394 102.742 34.1479 102.742Z" fill="url(#paint8_linear)"/>
<defs>
<linearGradient id="paint0_linear" x1="67.461" y1="0" x2="67.461" y2="132" gradientUnits="userSpaceOnUse">
<stop stop-color="#F56C7A"/>
<stop offset="1" stop-color="#DA2032"/>
</linearGradient>
<linearGradient id="paint1_linear" x1="53.7495" y1="36.6234" x2="75.2275" y2="66.7268" gradientUnits="userSpaceOnUse">
<stop stop-color="#C1E9AF"/>
<stop offset="1" stop-color="#4FC123"/>
</linearGradient>
<linearGradient id="paint2_linear" x1="46.6121" y1="41.7158" x2="68.0903" y2="71.8193" gradientUnits="userSpaceOnUse">
<stop stop-color="#C1E9AF"/>
<stop offset="1" stop-color="#4FC123"/>
</linearGradient>
<linearGradient id="paint3_linear" x1="39.7581" y1="46.606" x2="61.2363" y2="76.7095" gradientUnits="userSpaceOnUse">
<stop stop-color="#C1E9AF"/>
<stop offset="1" stop-color="#4FC123"/>
</linearGradient>
<linearGradient id="paint4_linear" x1="67.7474" y1="55.4704" x2="67.7474" y2="19.9159" gradientUnits="userSpaceOnUse">
<stop stop-color="#C1E9AF"/>
<stop offset="1" stop-color="#4FC123"/>
</linearGradient>
<linearGradient id="paint5_linear" x1="67.7474" y1="80.8396" x2="67.7474" y2="55.9921" gradientUnits="userSpaceOnUse">
<stop stop-color="#C1E9AF"/>
<stop offset="1" stop-color="#4FC123"/>
</linearGradient>
<linearGradient id="paint6_linear" x1="67.7477" y1="94.7009" x2="67.7477" y2="82.309" gradientUnits="userSpaceOnUse">
<stop stop-color="#C1E9AF"/>
<stop offset="1" stop-color="#4FC123"/>
</linearGradient>
<linearGradient id="paint7_linear" x1="64.7928" y1="92.2195" x2="70.5933" y2="100.35" gradientUnits="userSpaceOnUse">
<stop stop-color="#C1E9AF"/>
<stop offset="1" stop-color="#4FC123"/>
</linearGradient>
<linearGradient id="paint8_linear" x1="60.0831" y1="56.3148" x2="73.7138" y2="70.1408" gradientUnits="userSpaceOnUse">
<stop stop-color="#EEE5E6"/>
<stop offset="1" stop-color="white"/>
</linearGradient>
</defs>
</svg>
