<svg width="26" height="17" viewBox="0 0 26 17" fill="none" xmlns="http://www.w3.org/2000/svg">
<path d="M23.2962 0H16.7881V16.4986H23.2962C24.3377 16.4986 25.1821 15.6542 25.1821 14.6126V1.88595C25.1821 0.844337 24.3378 0 23.2962 0Z" fill="#FF4B55"/>
<path d="M16.7882 0.000183105H8.39404V16.4989H16.7882V0.000183105Z" fill="#41479B"/>
<path d="M1.88595 0C0.844337 0 0 0.844337 0 1.88595V14.6127C0 15.6542 0.844337 16.4986 1.88595 16.4986H8.39404V0H1.88595Z" fill="#FF4B55"/>
<path d="M4.21404 6.8244C3.55788 6.8244 2.99546 6.42906 2.74767 5.86438C2.74753 5.87299 2.74512 5.881 2.74512 5.88961C2.74512 6.70085 3.4028 7.35853 4.21404 7.35853C5.02527 7.35853 5.68291 6.70085 5.68291 5.88961C5.68291 5.881 5.6805 5.87299 5.68035 5.86443C5.43256 6.42906 4.87015 6.8244 4.21404 6.8244Z" fill="#F9CF02"/>
<path d="M4.21427 6.55738C4.80426 6.55738 5.28254 6.0791 5.28254 5.48911C5.28254 4.89912 4.80426 4.42084 4.21427 4.42084C3.62428 4.42084 3.146 4.89912 3.146 5.48911C3.146 6.0791 3.62428 6.55738 4.21427 6.55738Z" fill="#F9CF02"/>
<path d="M3.54688 3.48601C3.54688 3.85474 3.84581 4.15368 4.21454 4.15368C4.58327 4.15368 4.88221 3.85474 4.88221 3.48601C4.88221 3.21894 4.71528 3.18555 4.71528 3.08541C4.71528 2.98527 4.81542 2.85174 4.61515 2.68481C4.71528 2.85174 4.5484 2.88513 4.5484 3.05201C4.5484 3.21889 4.61515 3.21894 4.61515 3.35248C4.61515 3.42625 4.55534 3.48596 4.48166 3.48596C4.40789 3.48596 4.34818 3.42615 4.34818 3.35248C4.34818 3.21899 4.48166 3.08541 4.48166 2.88508C4.48166 2.68476 4.44827 2.61802 4.34818 2.45109C4.24804 2.28416 4.08111 2.15062 4.21469 2.01709C4.01437 2.08383 4.11455 2.3509 4.11455 2.51788C4.11455 2.68481 3.98107 2.78495 3.98107 2.98527C3.98107 3.1856 4.08121 3.21894 4.08121 3.35248C4.08121 3.42625 4.0214 3.48596 3.94772 3.48596C3.87405 3.48596 3.81424 3.42615 3.81424 3.35248C3.81424 3.21899 3.88098 3.21899 3.88098 3.05201C3.88098 2.88504 3.71405 2.85169 3.81424 2.68481C3.61391 2.85174 3.7141 2.98527 3.7141 3.08541C3.7138 3.18555 3.54688 3.21889 3.54688 3.48601Z" fill="#F9CF02"/>
<path d="M1.27637 7.73583V13.925C1.27637 13.9859 1.32575 14.0352 1.38659 14.0352H2.50144C2.56233 14.0352 2.61166 13.9858 2.61166 13.925V7.73583C2.61166 7.67494 2.56228 7.62561 2.50144 7.62561H1.38659C1.32575 7.62556 1.27637 7.67494 1.27637 7.73583Z" fill="#F9CF02"/>
<path d="M5.81689 7.73583V13.925C5.81689 13.9859 5.86628 14.0352 5.92712 14.0352H7.04196C7.10285 14.0352 7.15218 13.9858 7.15218 13.925V7.73583C7.15218 7.67494 7.1028 7.62561 7.04196 7.62561H5.92712C5.86623 7.62556 5.81689 7.67494 5.81689 7.73583Z" fill="#F9CF02"/>
<path d="M2.87891 8.80407V9.11771C2.87891 9.1786 2.92829 9.22793 2.98913 9.22793H5.43931C5.5002 9.22793 5.54953 9.17855 5.54953 9.11771V8.80407C5.54953 8.74318 5.50015 8.69385 5.43931 8.69385H2.98913C2.92824 8.69385 2.87891 8.74323 2.87891 8.80407Z" fill="#F9CF02"/>
<path d="M2.87891 12.5431V12.8567C2.87891 12.9176 2.92829 12.9669 2.98913 12.9669H5.43931C5.5002 12.9669 5.54953 12.9176 5.54953 12.8567V12.5431C5.54953 12.4822 5.50015 12.4329 5.43931 12.4329H2.98913C2.92824 12.4329 2.87891 12.4822 2.87891 12.5431Z" fill="#F9CF02"/>
<path d="M3.07766 7.62561H5.35034C5.40626 7.62561 5.42662 7.69924 5.37872 7.72801L4.29913 8.37581C4.24675 8.40724 4.18129 8.40724 4.12901 8.37581L3.04933 7.72801C3.00137 7.69924 3.02178 7.62561 3.07766 7.62561Z" fill="#F9CF02"/>
<path d="M3.07816 13.2341H5.35084C5.40676 13.2341 5.42712 13.3078 5.37922 13.3365L4.29953 13.9843C4.24715 14.0157 4.18169 14.0157 4.12941 13.9843L3.04978 13.3365C3.00187 13.3077 3.02228 13.2341 3.07816 13.2341Z" fill="#F9CF02"/>
<path d="M4.34452 9.50547C4.30242 9.50144 4.26165 9.49274 4.21852 9.49274C3.48415 9.49274 2.88672 10.0902 2.88672 10.8245C2.88672 11.2604 3.09963 11.644 3.42494 11.8861C3.46236 11.9139 3.51184 11.8737 3.49365 11.8306C3.45464 11.7382 3.43271 11.637 3.43271 11.5303C3.43271 11.0963 3.78649 10.7433 4.22093 10.7446C4.44929 10.7453 4.6682 10.6325 4.76927 10.4277C4.97835 10.0042 4.72324 9.58323 4.34452 9.50547ZM4.21852 10.385C4.07146 10.385 3.95214 10.2658 3.95214 10.1186C3.95214 9.97159 4.07141 9.85232 4.21852 9.85232C4.36557 9.85232 4.48485 9.97154 4.48485 10.1186C4.4848 10.2658 4.36557 10.385 4.21852 10.385Z" fill="#F9CF02"/>
<path d="M5.01216 9.76298C4.97473 9.73514 4.92525 9.77542 4.94345 9.81841C4.9825 9.91082 5.00439 10.0121 5.00439 10.1187C5.00439 10.5528 4.65056 10.9058 4.21617 10.9044C3.98781 10.9037 3.76884 11.0165 3.66782 11.2213C3.45884 11.6449 3.71395 12.0659 4.09267 12.1436C4.13477 12.1476 4.17554 12.1563 4.21868 12.1563C4.95299 12.1563 5.55047 11.5589 5.55047 10.8245C5.55037 10.3887 5.33746 10.0051 5.01216 9.76298ZM4.21868 11.7967C4.07162 11.7967 3.9523 11.6775 3.9523 11.5303C3.9523 11.3833 4.07157 11.264 4.21868 11.264C4.36573 11.264 4.48501 11.3832 4.48501 11.5303C4.48496 11.6775 4.36573 11.7967 4.21868 11.7967Z" fill="#F9CF02"/>
</svg>
